<svg width="145" height="31" viewBox="0 0 145 31" fill="none" xmlns="http://www.w3.org/2000/svg">
<mask id="mask0_1219_3" style="mask-type:alpha" maskUnits="userSpaceOnUse" x="0" y="0" width="47" height="31">
<path d="M0 0.458374L17.3708 30.4584L22.0412 22.3924L9.34083 0.458374L0 0.458374Z" fill="white"/>
<path d="M29.4872 30.4584L12.1164 0.458374L21.4572 0.458374L34.1576 22.3924L34.1445 22.4149L34.1571 22.4365L30.6689 28.4608L30.6564 28.4391L29.4872 30.4584Z" fill="white"/>
<path d="M31.97 14.1673L36.4202 6.48162L27.5198 6.48162L24.0322 0.458375L46.883 0.458376L35.4576 20.1905L31.97 14.1673Z" fill="white"/>
</mask>
<g mask="url(#mask0_1219_3)">
<g filter="url(#filter0_f_1219_3)">
<rect width="19.6556" height="42.671" transform="matrix(-0.98775 0.156043 -0.156889 -0.987616 36.6582 32.0815)" fill="url(#paint0_linear_1219_3)"/>
</g>
<g filter="url(#filter1_f_1219_3)">
<rect width="19.63" height="42.7267" transform="matrix(0.71158 -0.702605 0.704574 0.70963 -10.5488 6.84796)" fill="url(#paint1_linear_1219_3)"/>
</g>
<g filter="url(#filter2_f_1219_3)">
<rect width="24.1683" height="39.977" transform="matrix(0.963533 -0.26759 0.26897 0.963148 20.7065 -9.8277)" fill="url(#paint2_linear_1219_3)"/>
</g>
</g>
<path d="M83.5148 8.38029L84.2793 6.2558H80.5287L76.328 18.474L72.1773 6.2558H69.3768L65.1011 18.2745L61.0504 6.2558H57.0747L63.3508 23.835H66.5013L70.677 12.1654L74.8027 23.835H77.9186L83.5148 8.38029Z" fill="white"/>
<path d="M85.8367 9.44749H94.209L86.4076 23.835H90.6834L100.134 6.2558H98.5097H86.9924L85.8367 9.44749Z" fill="white"/>
<path d="M109.598 22.9374C110.281 23.6688 111.298 24.0345 112.648 24.0345C112.998 24.0345 113.373 23.9846 113.773 23.8849C114.174 23.8018 114.465 23.702 114.649 23.5857L114.349 22.3888C114.149 22.4719 113.915 22.5467 113.648 22.6132C113.382 22.6797 113.107 22.7129 112.823 22.7129C111.856 22.7129 111.165 22.447 110.748 21.915C110.331 21.3831 110.123 20.6101 110.123 19.5961V12.9633H114.048V11.7415H110.123V8.00125H108.598V11.7415H106.197V12.9633H108.598V19.7955C108.598 21.1587 108.931 22.2059 109.598 22.9374Z" fill="white"/>
<path d="M116.198 6.62982V8.54982H118.248V6.62982H116.198Z" fill="white"/>
<path d="M116.448 11.7415V23.835H117.973V11.7415H116.448Z" fill="white"/>
<path fill-rule="evenodd" clip-rule="evenodd" d="M121.991 11.7415V28.3233H123.516V21.5909C123.883 22.3555 124.433 22.954 125.166 23.3862C125.917 23.8184 126.783 24.0345 127.767 24.0345C128.85 24.0345 129.792 23.7852 130.592 23.2864C131.409 22.7711 132.034 22.048 132.468 21.1171C132.918 20.1696 133.143 19.0558 133.143 17.7758C133.143 16.4958 132.918 15.3903 132.468 14.4594C132.034 13.5285 131.409 12.8054 130.592 12.2901C129.792 11.7748 128.85 11.5171 127.767 11.5171C126.783 11.5171 125.917 11.7415 125.166 12.1903C124.433 12.6392 123.883 13.2459 123.516 14.0106V11.7415H121.991ZM130.492 21.4662C129.759 22.3306 128.775 22.7628 127.542 22.7628C126.308 22.7628 125.325 22.3306 124.591 21.4662C123.858 20.5852 123.491 19.355 123.491 17.7758C123.491 16.1966 123.858 14.9748 124.591 14.1103C125.325 13.2459 126.308 12.8137 127.542 12.8137C128.775 12.8137 129.759 13.2459 130.492 14.1103C131.226 14.9748 131.592 16.1966 131.592 17.7758C131.592 19.355 131.226 20.5852 130.492 21.4662Z" fill="white"/>
<path d="M137.723 23.6355C138.557 23.9015 139.424 24.0345 140.324 24.0345C141.741 24.0345 142.874 23.727 143.724 23.1119C144.575 22.4968 145 21.649 145 20.5685C145 19.7374 144.733 19.0807 144.2 18.5987C143.666 18.1 142.858 17.7259 141.774 17.4766L139.599 16.9779C138.882 16.8116 138.365 16.5706 138.048 16.2548C137.732 15.9389 137.573 15.5233 137.573 15.008C137.573 14.3264 137.832 13.7862 138.349 13.3872C138.882 12.9883 139.632 12.7888 140.599 12.7888C141.266 12.7888 141.907 12.9135 142.524 13.1628C143.141 13.3955 143.691 13.7529 144.175 14.235L144.775 13.1129C144.308 12.5976 143.708 12.207 142.974 11.941C142.241 11.6584 141.457 11.5171 140.624 11.5171C139.257 11.5171 138.157 11.8413 137.323 12.4896C136.49 13.1379 136.073 13.994 136.073 15.0579C136.073 16.7036 137.098 17.7592 139.149 18.2246L141.324 18.7233C142.074 18.9062 142.624 19.1472 142.974 19.4464C143.324 19.7457 143.499 20.1529 143.499 20.6683C143.499 21.3332 143.233 21.8568 142.699 22.2392C142.183 22.6049 141.407 22.7877 140.374 22.7877C139.64 22.7877 138.924 22.6797 138.224 22.4636C137.523 22.2309 136.865 21.8652 136.248 21.3665L135.698 22.4885C136.232 22.9872 136.907 23.3696 137.723 23.6355Z" fill="white"/>
<defs>
<filter id="filter0_f_1219_3" x="1.02189" y="-19.588" width="45.1633" height="64.2636" filterUnits="userSpaceOnUse" color-interpolation-filters="sRGB">
<feFlood flood-opacity="0" result="BackgroundImageFix"/>
<feBlend mode="normal" in="SourceGraphic" in2="BackgroundImageFix" result="shape"/>
<feGaussianBlur stdDeviation="4.76347" result="effect1_foregroundBlur_1219_3"/>
</filter>
<filter id="filter1_f_1219_3" x="-20.0758" y="-16.4712" width="63.1261" height="63.1662" filterUnits="userSpaceOnUse" color-interpolation-filters="sRGB">
<feFlood flood-opacity="0" result="BackgroundImageFix"/>
<feBlend mode="normal" in="SourceGraphic" in2="BackgroundImageFix" result="shape"/>
<feGaussianBlur stdDeviation="4.76347" result="effect1_foregroundBlur_1219_3"/>
</filter>
<filter id="filter2_f_1219_3" x="11.1796" y="-25.8219" width="53.0934" height="64.0249" filterUnits="userSpaceOnUse" color-interpolation-filters="sRGB">
<feFlood flood-opacity="0" result="BackgroundImageFix"/>
<feBlend mode="normal" in="SourceGraphic" in2="BackgroundImageFix" result="shape"/>
<feGaussianBlur stdDeviation="4.76347" result="effect1_foregroundBlur_1219_3"/>
</filter>
<linearGradient id="paint0_linear_1219_3" x1="9.8278" y1="0" x2="9.8278" y2="42.671" gradientUnits="userSpaceOnUse">
<stop stop-color="#19C8BA"/>
<stop offset="1" stop-color="#3B70E3"/>
</linearGradient>
<linearGradient id="paint1_linear_1219_3" x1="9.81501" y1="0" x2="9.81501" y2="42.7267" gradientUnits="userSpaceOnUse">
<stop stop-color="#19C8BA"/>
<stop offset="1" stop-color="#3B70E3"/>
</linearGradient>
<linearGradient id="paint2_linear_1219_3" x1="0.881999" y1="9.91332" x2="17.6652" y2="25.953" gradientUnits="userSpaceOnUse">
<stop stop-color="#6C3EE8" stop-opacity="0.52"/>
<stop offset="1" stop-color="#C03CD6"/>
</linearGradient>
</defs>
</svg>
