<svg width="145" height="31" viewBox="0 0 145 31" fill="none" xmlns="http://www.w3.org/2000/svg">
<g clip-path="url(#clip0_3094_799)">
<mask id="mask0_3094_799" style="mask-type:alpha" maskUnits="userSpaceOnUse" x="0" y="0" width="47" height="31">
<path d="M0 0.458252L17.3708 30.4583L22.0412 22.3923L9.34083 0.458252H0Z" fill="white"/>
<path d="M29.488 30.4583L12.1172 0.458252H21.458L34.1584 22.3923L34.1453 22.4148L34.1579 22.4364L30.6697 28.4607L30.6572 28.439L29.488 30.4583Z" fill="white"/>
<path d="M31.969 14.1672L36.4193 6.4815H27.5189L24.0312 0.458252L46.882 0.458253L35.4566 20.1904L31.969 14.1672Z" fill="white"/>
</mask>
<g mask="url(#mask0_3094_799)">
<g filter="url(#filter0_f_3094_799)">
<path d="M17.2434 35.1487L36.6582 32.0815L29.9636 -10.061L10.5488 -6.9939L17.2434 35.1487Z" fill="url(#paint0_linear_3094_799)"/>
</g>
<g filter="url(#filter1_f_3094_799)">
<path d="M3.41949 -6.94399L-10.5488 6.84814L19.5553 37.1683L33.5236 23.3762L3.41949 -6.94399Z" fill="url(#paint1_linear_3094_799)"/>
</g>
<g filter="url(#filter2_f_3094_799)">
<path d="M43.994 -16.2948L20.707 -9.82764L31.4596 28.6761L54.7466 22.2089L43.994 -16.2948Z" fill="url(#paint2_linear_3094_799)"/>
</g>
</g>
<path d="M83.5143 8.38035L84.2788 6.25586H80.5282L76.3275 18.4741L72.1768 6.25586H69.3763L65.1006 18.2746L61.0499 6.25586H57.0742L63.3503 23.8351H66.5008L70.6765 12.1655L74.8022 23.8351H77.9181L83.5143 8.38035Z" fill="white"/>
<path d="M85.8359 9.44755H94.2082L86.4068 23.8351H90.6826L100.133 6.25586H98.5089H86.9916L85.8359 9.44755Z" fill="white"/>
<path d="M109.598 22.9374C110.281 23.6688 111.298 24.0345 112.648 24.0345C112.998 24.0345 113.373 23.9846 113.773 23.8849C114.174 23.8018 114.465 23.702 114.649 23.5857L114.349 22.3888C114.149 22.4719 113.915 22.5467 113.648 22.6132C113.382 22.6797 113.107 22.7129 112.823 22.7129C111.856 22.7129 111.165 22.447 110.748 21.915C110.331 21.3831 110.123 20.6101 110.123 19.5961V12.9633H114.048V11.7415H110.123V8.00122H108.598V11.7415H106.197V12.9633H108.598V19.7955C108.598 21.1587 108.931 22.2059 109.598 22.9374Z" fill="white"/>
<path d="M116.197 6.62988V8.54988H118.247V6.62988H116.197Z" fill="white"/>
<path d="M116.447 11.7415V23.835H117.972V11.7415H116.447Z" fill="white"/>
<path fill-rule="evenodd" clip-rule="evenodd" d="M121.99 11.7415V28.3233H123.515V21.5909C123.882 22.3555 124.432 22.954 125.165 23.3862C125.916 23.8184 126.782 24.0345 127.766 24.0345C128.849 24.0345 129.791 23.7852 130.591 23.2864C131.408 22.7711 132.033 22.048 132.467 21.1171C132.917 20.1696 133.142 19.0558 133.142 17.7758C133.142 16.4958 132.917 15.3903 132.467 14.4594C132.033 13.5285 131.408 12.8054 130.591 12.2901C129.791 11.7748 128.849 11.5171 127.766 11.5171C126.782 11.5171 125.916 11.7415 125.165 12.1903C124.432 12.6392 123.882 13.2459 123.515 14.0106V11.7415H121.99ZM130.491 21.4662C129.758 22.3306 128.774 22.7628 127.541 22.7628C126.307 22.7628 125.324 22.3306 124.59 21.4662C123.857 20.5852 123.49 19.355 123.49 17.7758C123.49 16.1966 123.857 14.9748 124.59 14.1103C125.324 13.2459 126.307 12.8137 127.541 12.8137C128.774 12.8137 129.758 13.2459 130.491 14.1103C131.225 14.9748 131.591 16.1966 131.591 17.7758C131.591 19.355 131.225 20.5852 130.491 21.4662Z" fill="white"/>
<path d="M137.722 23.6355C138.556 23.9015 139.423 24.0345 140.323 24.0345C141.74 24.0345 142.873 23.727 143.723 23.1119C144.574 22.4968 144.999 21.649 144.999 20.5685C144.999 19.7374 144.732 19.0807 144.199 18.5987C143.665 18.1 142.857 17.7259 141.773 17.4766L139.598 16.9779C138.881 16.8116 138.364 16.5706 138.047 16.2548C137.731 15.9389 137.572 15.5233 137.572 15.008C137.572 14.3264 137.831 13.7862 138.348 13.3872C138.881 12.9883 139.631 12.7888 140.598 12.7888C141.265 12.7888 141.906 12.9135 142.523 13.1628C143.14 13.3955 143.69 13.7529 144.174 14.235L144.774 13.1129C144.307 12.5976 143.707 12.207 142.973 11.941C142.24 11.6584 141.456 11.5171 140.623 11.5171C139.256 11.5171 138.156 11.8413 137.322 12.4896C136.489 13.1379 136.072 13.994 136.072 15.0579C136.072 16.7036 137.097 17.7592 139.148 18.2246L141.323 18.7233C142.073 18.9062 142.623 19.1472 142.973 19.4464C143.323 19.7457 143.498 20.1529 143.498 20.6683C143.498 21.3332 143.232 21.8568 142.698 22.2392C142.182 22.6049 141.406 22.7877 140.373 22.7877C139.639 22.7877 138.923 22.6797 138.223 22.4636C137.522 22.2309 136.864 21.8652 136.247 21.3665L135.697 22.4885C136.231 22.9872 136.906 23.3696 137.722 23.6355Z" fill="white"/>
</g>
<defs>
<filter id="filter0_f_3094_799" x="1.02189" y="-19.588" width="45.1633" height="64.2636" filterUnits="userSpaceOnUse" color-interpolation-filters="sRGB">
<feFlood flood-opacity="0" result="BackgroundImageFix"/>
<feBlend mode="normal" in="SourceGraphic" in2="BackgroundImageFix" result="shape"/>
<feGaussianBlur stdDeviation="4.76347" result="effect1_foregroundBlur_3094_799"/>
</filter>
<filter id="filter1_f_3094_799" x="-20.0758" y="-16.471" width="63.1261" height="63.1662" filterUnits="userSpaceOnUse" color-interpolation-filters="sRGB">
<feFlood flood-opacity="0" result="BackgroundImageFix"/>
<feBlend mode="normal" in="SourceGraphic" in2="BackgroundImageFix" result="shape"/>
<feGaussianBlur stdDeviation="4.76347" result="effect1_foregroundBlur_3094_799"/>
</filter>
<filter id="filter2_f_3094_799" x="11.1801" y="-25.8219" width="53.0929" height="64.0248" filterUnits="userSpaceOnUse" color-interpolation-filters="sRGB">
<feFlood flood-opacity="0" result="BackgroundImageFix"/>
<feBlend mode="normal" in="SourceGraphic" in2="BackgroundImageFix" result="shape"/>
<feGaussianBlur stdDeviation="4.76347" result="effect1_foregroundBlur_3094_799"/>
</filter>
<linearGradient id="paint0_linear_3094_799" x1="34.0304" y1="24.8492" x2="12.64" y2="-1.77344" gradientUnits="userSpaceOnUse">
<stop stop-color="#917AEB"/>
<stop offset="0.5" stop-color="#4AA2EF"/>
<stop offset="1" stop-color="#24AAE4"/>
</linearGradient>
<linearGradient id="paint1_linear_3094_799" x1="-3.56466" y1="-0.0479307" x2="26.4552" y2="30.3554" gradientUnits="userSpaceOnUse">
<stop stop-color="#21C5CB"/>
<stop offset="0.552083" stop-color="#30C4E9"/>
<stop offset="1" stop-color="#3B70E3"/>
</linearGradient>
<linearGradient id="paint2_linear_3094_799" x1="28.5" y1="11.5" x2="46.4998" y2="7.99884" gradientUnits="userSpaceOnUse">
<stop stop-color="#7174F2"/>
<stop offset="0.78125" stop-color="#D857F7"/>
<stop offset="1" stop-color="#A646BD"/>
</linearGradient>
<clipPath id="clip0_3094_799">
<rect width="145" height="31" fill="white"/>
</clipPath>
</defs>
</svg>
