<svg width="196" height="40" viewBox="0 0 196 40" fill="none" xmlns="http://www.w3.org/2000/svg">
<mask id="mask0_656_1223" style="mask-type:alpha" maskUnits="userSpaceOnUse" x="0" y="0" width="64" height="40">
<path d="M0.619141 0L23.9398 40L30.21 29.2453L13.1594 5.61394e-07L0.619141 0Z" fill="white"/>
<path d="M40.2064 40L16.8857 0L29.426 5.61394e-07L46.4766 29.2453L46.4591 29.2754L46.4759 29.3042L41.7929 37.3365L41.7761 37.3076L40.2064 40Z" fill="white"/>
<path d="M43.5396 18.2786L49.5141 8.03099L37.5651 8.03099L32.8829 7.18076e-07L63.5608 2.43135e-06L48.2218 26.3095L43.5396 18.2786Z" fill="white"/>
</mask>
<g mask="url(#mask0_656_1223)">
<rect width="26.3838" height="56.9043" transform="matrix(-0.987914 0.155001 -0.157944 -0.987448 49.834 42.1639)" fill="url(#paint0_linear_656_1223)"/>
<rect width="26.2649" height="57.1643" transform="matrix(0.713989 -0.700157 0.707008 0.707206 -13.543 8.51941)" fill="url(#paint1_linear_656_1223)"/>
<rect width="32.4308" height="53.3293" transform="matrix(0.964004 -0.265888 0.270689 0.962667 28.418 -13.7148)" fill="url(#paint2_linear_656_1223)"/>
<g filter="url(#filter0_b_656_1223)">
<rect x="-43.6387" y="-34.8491" width="135.948" height="94.2506" fill="white" fill-opacity="0.1"/>
</g>
</g>
<path d="M112.741 10.5629L113.767 7.73022H108.732L103.092 24.0211L97.5197 7.73022H93.76L88.0197 23.7552L82.5816 7.73022H77.2441L85.6699 31.1692H89.8996L95.5056 15.6097L101.044 31.1692H105.228L112.741 10.5629Z" fill="white"/>
<path d="M115.858 11.9858H127.098L116.624 31.1692H122.365L135.052 7.73022H132.872H117.409L115.858 11.9858Z" fill="white"/>
<path d="M147.758 29.9723C148.675 30.9475 150.04 31.4352 151.853 31.4352C152.323 31.4352 152.827 31.3687 153.364 31.2357C153.901 31.1249 154.292 30.9919 154.539 30.8367L154.136 29.2409C153.867 29.3517 153.554 29.4514 153.196 29.5401C152.838 29.6288 152.468 29.6731 152.088 29.6731C150.79 29.6731 149.861 29.3185 149.302 28.6092C148.742 27.8999 148.463 26.8693 148.463 25.5172V16.6736H153.733V15.0445H148.463V10.0575H146.415V15.0445H143.192V16.6736H146.415V25.7832C146.415 27.6007 146.862 28.9971 147.758 29.9723Z" fill="white"/>
<path d="M156.619 8.22893V10.7889H159.371V8.22893H156.619Z" fill="white"/>
<path d="M156.954 15.0445V31.1692H159.002V15.0445H156.954Z" fill="white"/>
<path fill-rule="evenodd" clip-rule="evenodd" d="M164.396 15.0445V37.1536H166.443V28.177C166.936 29.1965 167.674 29.9945 168.659 30.5707C169.666 31.147 170.83 31.4352 172.15 31.4352C173.605 31.4352 174.869 31.1027 175.943 30.4378C177.04 29.7507 177.879 28.7865 178.461 27.5453C179.065 26.2819 179.367 24.7969 179.367 23.0902C179.367 21.3836 179.065 19.9096 178.461 18.6684C177.879 17.4272 177.04 16.463 175.943 15.7759C174.869 15.0888 173.605 14.7453 172.15 14.7453C170.83 14.7453 169.666 15.0445 168.659 15.643C167.674 16.2414 166.936 17.0504 166.443 18.07V15.0445H164.396ZM175.809 28.0107C174.824 29.1633 173.504 29.7396 171.848 29.7396C170.192 29.7396 168.872 29.1633 167.887 28.0107C166.902 26.836 166.41 25.1959 166.41 23.0902C166.41 20.9846 166.902 19.3555 167.887 18.203C168.872 17.0504 170.192 16.4741 171.848 16.4741C173.504 16.4741 174.824 17.0504 175.809 18.203C176.794 19.3555 177.286 20.9846 177.286 23.0902C177.286 25.1959 176.794 26.836 175.809 28.0107Z" fill="white"/>
<path d="M185.517 30.9032C186.636 31.2578 187.8 31.4352 189.008 31.4352C190.911 31.4352 192.432 31.0251 193.574 30.205C194.715 29.3849 195.286 28.2546 195.286 26.8139C195.286 25.7056 194.928 24.8301 194.211 24.1874C193.495 23.5224 192.41 23.0237 190.955 22.6913L188.035 22.0263C187.072 21.8047 186.379 21.4833 185.954 21.0622C185.528 20.641 185.316 20.0869 185.316 19.3998C185.316 18.4911 185.663 17.7707 186.356 17.2388C187.072 16.7068 188.08 16.4409 189.378 16.4409C190.273 16.4409 191.134 16.6071 191.962 16.9396C192.79 17.2499 193.529 17.7264 194.178 18.3692L194.984 16.8731C194.357 16.186 193.551 15.6651 192.567 15.3105C191.582 14.9337 190.53 14.7453 189.411 14.7453C187.576 14.7453 186.099 15.1775 184.98 16.0419C183.861 16.9063 183.302 18.0478 183.302 19.4663C183.302 21.6606 184.678 23.0681 187.431 23.6887L190.351 24.3536C191.358 24.5974 192.097 24.9188 192.567 25.3178C193.037 25.7167 193.272 26.2597 193.272 26.9468C193.272 27.8334 192.913 28.5316 192.197 29.0414C191.504 29.529 190.463 29.7728 189.075 29.7728C188.091 29.7728 187.128 29.6288 186.189 29.3406C185.249 29.0303 184.365 28.5427 183.537 27.8778L182.798 29.3739C183.514 30.0388 184.421 30.5486 185.517 30.9032Z" fill="white"/>
<defs>
<filter id="filter0_b_656_1223" x="-59.4135" y="-50.6239" width="167.497" height="125.8" filterUnits="userSpaceOnUse" color-interpolation-filters="sRGB">
<feFlood flood-opacity="0" result="BackgroundImageFix"/>
<feGaussianBlur in="BackgroundImage" stdDeviation="7.8874"/>
<feComposite in2="SourceAlpha" operator="in" result="effect1_backgroundBlur_656_1223"/>
<feBlend mode="normal" in="SourceGraphic" in2="effect1_backgroundBlur_656_1223" result="shape"/>
</filter>
<linearGradient id="paint0_linear_656_1223" x1="13.1919" y1="0" x2="13.1919" y2="56.9043" gradientUnits="userSpaceOnUse">
<stop stop-color="#00FFEB"/>
<stop offset="1" stop-color="#0094FF"/>
</linearGradient>
<linearGradient id="paint1_linear_656_1223" x1="13.1324" y1="0" x2="13.1324" y2="57.1643" gradientUnits="userSpaceOnUse">
<stop stop-color="#00FFEB"/>
<stop offset="1" stop-color="#3B70E3"/>
</linearGradient>
<linearGradient id="paint2_linear_656_1223" x1="1.18353" y1="13.2244" x2="23.5779" y2="34.7529" gradientUnits="userSpaceOnUse">
<stop stop-color="#6C3EE8"/>
<stop offset="1" stop-color="#FB48FF"/>
</linearGradient>
</defs>
</svg>
