<svg width="179" height="44" viewBox="0 0 179 44" fill="none" xmlns="http://www.w3.org/2000/svg">
<g clip-path="url(#clip0_3092_776)">
<mask id="mask0_3092_776" style="mask-type:alpha" maskUnits="userSpaceOnUse" x="0" y="13" width="47" height="31">
<path d="M0 13.4583L17.3708 43.4583L22.0412 35.3923L9.34083 13.4583H0Z" fill="white"/>
<path d="M29.488 43.4583L12.1172 13.4583H21.458L34.1584 35.3923L34.1453 35.4148L34.1579 35.4364L30.6697 41.4607L30.6572 41.439L29.488 43.4583Z" fill="white"/>
<path d="M31.969 27.1672L36.4193 19.4815H27.5189L24.0312 13.4583L46.882 13.4583L35.4566 33.1904L31.969 27.1672Z" fill="white"/>
</mask>
<g mask="url(#mask0_3092_776)">
<g filter="url(#filter0_f_3092_776)">
<path d="M17.2434 48.1487L36.6582 45.0815L29.9636 2.93898L10.5488 6.0061L17.2434 48.1487Z" fill="url(#paint0_linear_3092_776)"/>
</g>
<g filter="url(#filter1_f_3092_776)">
<path d="M3.41949 6.05601L-10.5488 19.8481L19.5553 50.1683L33.5236 36.3762L3.41949 6.05601Z" fill="url(#paint1_linear_3092_776)"/>
</g>
<g filter="url(#filter2_f_3092_776)">
<path d="M43.994 -3.29483L20.707 3.17236L31.4596 41.6761L54.7466 35.2089L43.994 -3.29483Z" fill="url(#paint2_linear_3092_776)"/>
</g>
</g>
<path d="M83.5143 21.3803L84.2788 19.2559H80.5282L76.3275 31.4741L72.1768 19.2559H69.3763L65.1006 31.2746L61.0499 19.2559H57.0742L63.3503 36.8351H66.5008L70.6765 25.1655L74.8022 36.8351H77.9181L83.5143 21.3803Z" fill="white"/>
<path d="M85.8359 22.4475H94.2082L86.4068 36.8351H90.6826L100.133 19.2559H98.5089H86.9916L85.8359 22.4475Z" fill="white"/>
<path d="M109.598 35.9374C110.281 36.6688 111.298 37.0345 112.648 37.0345C112.998 37.0345 113.373 36.9846 113.773 36.8849C114.174 36.8018 114.465 36.702 114.649 36.5857L114.349 35.3888C114.149 35.4719 113.915 35.5467 113.648 35.6132C113.382 35.6797 113.107 35.7129 112.823 35.7129C111.856 35.7129 111.165 35.447 110.748 34.915C110.331 34.3831 110.123 33.6101 110.123 32.5961V25.9633H114.048V24.7415H110.123V21.0012H108.598V24.7415H106.197V25.9633H108.598V32.7955C108.598 34.1587 108.931 35.2059 109.598 35.9374Z" fill="white"/>
<path d="M116.197 19.6299V21.5499H118.247V19.6299H116.197Z" fill="white"/>
<path d="M116.447 24.7415V36.835H117.972V24.7415H116.447Z" fill="white"/>
<path fill-rule="evenodd" clip-rule="evenodd" d="M121.99 24.7415V41.3233H123.515V34.5909C123.882 35.3555 124.432 35.954 125.165 36.3862C125.916 36.8184 126.782 37.0345 127.766 37.0345C128.849 37.0345 129.791 36.7852 130.591 36.2864C131.408 35.7711 132.033 35.048 132.467 34.1171C132.917 33.1696 133.142 32.0558 133.142 30.7758C133.142 29.4958 132.917 28.3903 132.467 27.4594C132.033 26.5285 131.408 25.8054 130.591 25.2901C129.791 24.7748 128.849 24.5171 127.766 24.5171C126.782 24.5171 125.916 24.7415 125.165 25.1903C124.432 25.6392 123.882 26.2459 123.515 27.0106V24.7415H121.99ZM130.491 34.4662C129.758 35.3306 128.774 35.7628 127.541 35.7628C126.307 35.7628 125.324 35.3306 124.59 34.4662C123.857 33.5852 123.49 32.355 123.49 30.7758C123.49 29.1966 123.857 27.9748 124.59 27.1103C125.324 26.2459 126.307 25.8137 127.541 25.8137C128.774 25.8137 129.758 26.2459 130.491 27.1103C131.225 27.9748 131.591 29.1966 131.591 30.7758C131.591 32.355 131.225 33.5852 130.491 34.4662Z" fill="white"/>
<path d="M137.722 36.6355C138.556 36.9015 139.423 37.0345 140.323 37.0345C141.74 37.0345 142.873 36.727 143.723 36.1119C144.574 35.4968 144.999 34.649 144.999 33.5685C144.999 32.7374 144.732 32.0807 144.199 31.5987C143.665 31.1 142.857 30.7259 141.773 30.4766L139.598 29.9779C138.881 29.8116 138.364 29.5706 138.047 29.2548C137.731 28.9389 137.572 28.5233 137.572 28.008C137.572 27.3264 137.831 26.7862 138.348 26.3872C138.881 25.9883 139.631 25.7888 140.598 25.7888C141.265 25.7888 141.906 25.9135 142.523 26.1628C143.14 26.3955 143.69 26.7529 144.174 27.235L144.774 26.1129C144.307 25.5976 143.707 25.207 142.973 24.941C142.24 24.6584 141.456 24.5171 140.623 24.5171C139.256 24.5171 138.156 24.8413 137.322 25.4896C136.489 26.1379 136.072 26.994 136.072 28.0579C136.072 29.7036 137.097 30.7592 139.148 31.2246L141.323 31.7233C142.073 31.9062 142.623 32.1472 142.973 32.4464C143.323 32.7457 143.498 33.1529 143.498 33.6683C143.498 34.3332 143.232 34.8568 142.698 35.2392C142.182 35.6049 141.406 35.7877 140.373 35.7877C139.639 35.7877 138.923 35.6797 138.223 35.4636C137.522 35.2309 136.864 34.8652 136.247 34.3665L135.697 35.4885C136.231 35.9872 136.906 36.3696 137.722 36.6355Z" fill="white"/>
</g>
<rect x="143" width="35.6863" height="15.1961" rx="4.90196" fill="url(#paint3_linear_3092_776)"/>
<path d="M152.671 6.1843C152.797 5.98038 152.977 5.81567 153.212 5.69018C153.448 5.56469 153.717 5.50195 154.02 5.50195C154.381 5.50195 154.708 5.59345 155.001 5.77646C155.293 5.95946 155.523 6.2209 155.691 6.56077C155.863 6.90064 155.95 7.29541 155.95 7.74508C155.95 8.19476 155.863 8.59214 155.691 8.93724C155.523 9.27711 155.293 9.54116 155.001 9.7294C154.708 9.9124 154.381 10.0039 154.02 10.0039C153.712 10.0039 153.442 9.94378 153.212 9.82352C152.982 9.69802 152.802 9.53332 152.671 9.3294V9.94116H151.33V4.13724H152.671V6.1843ZM154.585 7.74508C154.585 7.41044 154.491 7.149 154.303 6.96077C154.12 6.76731 153.892 6.67057 153.62 6.67057C153.354 6.67057 153.126 6.76731 152.938 6.96077C152.755 7.15423 152.663 7.41829 152.663 7.75293C152.663 8.08757 152.755 8.35162 152.938 8.54508C153.126 8.73855 153.354 8.83528 153.62 8.83528C153.887 8.83528 154.114 8.73855 154.303 8.54508C154.491 8.34639 154.585 8.07972 154.585 7.74508ZM161.171 7.68234C161.171 7.80783 161.163 7.93855 161.147 8.0745H158.112C158.133 8.34639 158.219 8.55554 158.371 8.70195C158.528 8.84312 158.719 8.91371 158.943 8.91371C159.278 8.91371 159.511 8.77253 159.641 8.49018H161.069C160.996 8.77776 160.862 9.03659 160.669 9.26665C160.481 9.49672 160.243 9.67711 159.955 9.80783C159.668 9.93855 159.346 10.0039 158.991 10.0039C158.562 10.0039 158.18 9.9124 157.845 9.7294C157.511 9.54639 157.249 9.28495 157.061 8.94508C156.873 8.60521 156.779 8.20783 156.779 7.75293C156.779 7.29802 156.87 6.90064 157.053 6.56077C157.241 6.2209 157.503 5.95946 157.838 5.77646C158.172 5.59345 158.557 5.50195 158.991 5.50195C159.414 5.50195 159.791 5.59083 160.12 5.76861C160.449 5.94639 160.706 6.19999 160.889 6.5294C161.077 6.85881 161.171 7.24312 161.171 7.68234ZM159.798 7.3294C159.798 7.09933 159.72 6.91633 159.563 6.78038C159.406 6.64443 159.21 6.57646 158.975 6.57646C158.75 6.57646 158.559 6.64182 158.402 6.77253C158.251 6.90325 158.157 7.08887 158.12 7.3294H159.798ZM164.71 8.80391V9.94116H164.027C163.541 9.94116 163.162 9.82352 162.89 9.58822C162.618 9.3477 162.482 8.95816 162.482 8.41959V6.67842H161.949V5.56469H162.482V4.49802H163.824V5.56469H164.702V6.67842H163.824V8.43528C163.824 8.566 163.855 8.66012 163.918 8.71763C163.98 8.77515 164.085 8.80391 164.231 8.80391H164.71ZM165.582 7.74508C165.582 7.29541 165.666 6.90064 165.833 6.56077C166.006 6.2209 166.239 5.95946 166.531 5.77646C166.824 5.59345 167.151 5.50195 167.512 5.50195C167.82 5.50195 168.09 5.56469 168.32 5.69018C168.555 5.81567 168.735 5.98038 168.861 6.1843V5.56469H170.202V9.94116H168.861V9.32155C168.73 9.52548 168.547 9.69018 168.312 9.81567C168.082 9.94116 167.812 10.0039 167.504 10.0039C167.148 10.0039 166.824 9.9124 166.531 9.7294C166.239 9.54116 166.006 9.27711 165.833 8.93724C165.666 8.59214 165.582 8.19476 165.582 7.74508ZM168.861 7.75293C168.861 7.41829 168.767 7.15423 168.578 6.96077C168.395 6.76731 168.171 6.67057 167.904 6.67057C167.637 6.67057 167.41 6.76731 167.222 6.96077C167.039 7.149 166.947 7.41044 166.947 7.74508C166.947 8.07972 167.039 8.34639 167.222 8.54508C167.41 8.73855 167.637 8.83528 167.904 8.83528C168.171 8.83528 168.395 8.73855 168.578 8.54508C168.767 8.35162 168.861 8.08757 168.861 7.75293Z" fill="white"/>
<defs>
<filter id="filter0_f_3092_776" x="1.02189" y="-6.58798" width="45.1633" height="64.2636" filterUnits="userSpaceOnUse" color-interpolation-filters="sRGB">
<feFlood flood-opacity="0" result="BackgroundImageFix"/>
<feBlend mode="normal" in="SourceGraphic" in2="BackgroundImageFix" result="shape"/>
<feGaussianBlur stdDeviation="4.76347" result="effect1_foregroundBlur_3092_776"/>
</filter>
<filter id="filter1_f_3092_776" x="-20.0758" y="-3.47103" width="63.1261" height="63.1662" filterUnits="userSpaceOnUse" color-interpolation-filters="sRGB">
<feFlood flood-opacity="0" result="BackgroundImageFix"/>
<feBlend mode="normal" in="SourceGraphic" in2="BackgroundImageFix" result="shape"/>
<feGaussianBlur stdDeviation="4.76347" result="effect1_foregroundBlur_3092_776"/>
</filter>
<filter id="filter2_f_3092_776" x="11.1801" y="-12.8219" width="53.0929" height="64.0248" filterUnits="userSpaceOnUse" color-interpolation-filters="sRGB">
<feFlood flood-opacity="0" result="BackgroundImageFix"/>
<feBlend mode="normal" in="SourceGraphic" in2="BackgroundImageFix" result="shape"/>
<feGaussianBlur stdDeviation="4.76347" result="effect1_foregroundBlur_3092_776"/>
</filter>
<linearGradient id="paint0_linear_3092_776" x1="34.0304" y1="37.8492" x2="12.64" y2="11.2266" gradientUnits="userSpaceOnUse">
<stop stop-color="#917AEB"/>
<stop offset="0.5" stop-color="#4AA2EF"/>
<stop offset="1" stop-color="#24AAE4"/>
</linearGradient>
<linearGradient id="paint1_linear_3092_776" x1="-3.56466" y1="12.9521" x2="26.4552" y2="43.3554" gradientUnits="userSpaceOnUse">
<stop stop-color="#21C5CB"/>
<stop offset="0.552083" stop-color="#30C4E9"/>
<stop offset="1" stop-color="#3B70E3"/>
</linearGradient>
<linearGradient id="paint2_linear_3092_776" x1="28.5" y1="24.5" x2="46.4998" y2="20.9988" gradientUnits="userSpaceOnUse">
<stop stop-color="#7174F2"/>
<stop offset="0.78125" stop-color="#D857F7"/>
<stop offset="1" stop-color="#A646BD"/>
</linearGradient>
<linearGradient id="paint3_linear_3092_776" x1="143" y1="0" x2="153.955" y2="25.7272" gradientUnits="userSpaceOnUse">
<stop offset="0.197917" stop-color="#22C2CC"/>
<stop offset="1" stop-color="#C900FF"/>
</linearGradient>
<clipPath id="clip0_3092_776">
<rect width="145" height="31" fill="white" transform="translate(0 13)"/>
</clipPath>
</defs>
</svg>
