<svg width="216" height="216" viewBox="0 0 216 216" fill="none" xmlns="http://www.w3.org/2000/svg">
<mask id="mask0_3040_1078" style="mask-type:alpha" maskUnits="userSpaceOnUse" x="0" y="0" width="216" height="216">
<circle cx="108" cy="108" r="108" fill="#D9D9D9"/>
</mask>
<g mask="url(#mask0_3040_1078)">
<circle cx="108" cy="108" r="108" fill="url(#paint0_linear_3040_1078)"/>
<path opacity="0.7" fill-rule="evenodd" clip-rule="evenodd" d="M31.0039 65.509V237.175H184.997V65.5091C184.962 65.5098 184.926 65.5101 184.89 65.5101C181.978 65.5101 179.617 63.2569 179.617 60.4775H171.265C171.265 63.2569 168.905 65.5101 165.993 65.5101C163.081 65.5101 160.721 63.2569 160.721 60.4775H151.937C151.937 63.2569 149.576 65.5101 146.664 65.5101C143.752 65.5101 141.392 63.2569 141.392 60.4775H132.608C132.608 63.2569 130.247 65.5101 127.335 65.5101C124.424 65.5101 122.063 63.2569 122.063 60.4775H113.711C113.711 63.2569 111.351 65.5101 108.439 65.5101C105.527 65.5101 103.166 63.2569 103.166 60.4775H94.3823C94.3822 63.2569 92.0218 65.5101 89.11 65.5101C86.1982 65.5101 83.8377 63.2569 83.8376 60.4775H75.05C75.05 63.2569 72.6895 65.5101 69.7777 65.5101C66.8659 65.5101 64.5054 63.2569 64.5053 60.4775H55.7143C55.7142 63.2569 53.3537 65.5101 50.4419 65.5101C47.5302 65.5101 45.1697 63.2569 45.1696 60.4775H36.3855C36.3854 63.2569 34.0249 65.5101 31.1131 65.5101C31.0766 65.5101 31.0402 65.5097 31.0039 65.509Z" fill="url(#paint1_linear_3040_1078)"/>
<rect x="40" y="116.744" width="57.2539" height="2.96141" rx="1.48071" fill="white"/>
<rect x="161.414" y="116.744" width="14.8071" height="2.96141" rx="1.48071" fill="white"/>
<rect x="40" y="129.706" width="136.202" height="1" rx="0.5" fill="white" fill-opacity="0.3"/>
<rect x="40" y="140.706" width="37.5112" height="2.96141" rx="1.48071" fill="white"/>
<rect x="158.457" y="140.706" width="17.7685" height="2.96141" rx="1.48071" fill="white"/>
<rect x="40" y="153.667" width="136.202" height="1" rx="0.5" fill="white" fill-opacity="0.3"/>
<rect x="40" y="164.667" width="66.1382" height="2.96141" rx="1.48071" fill="white"/>
<rect x="151.543" y="164.667" width="24.6784" height="2.96141" rx="1.48071" fill="white"/>
<rect x="40" y="177.628" width="136.202" height="1" rx="0.5" fill="white" fill-opacity="0.3"/>
<rect x="40" y="188.628" width="47.3826" height="2.96141" rx="1.48071" fill="white"/>
<rect x="158.457" y="188.628" width="17.7685" height="2.96141" rx="1.48071" fill="white"/>
<rect x="72.4648" y="81.2073" width="71.0739" height="4.93568" rx="2.46784" fill="white"/>
<rect x="83.3203" y="93.053" width="49.3568" height="2.96141" rx="1.48071" fill="white"/>
</g>
<defs>
<linearGradient id="paint0_linear_3040_1078" x1="0" y1="0" x2="250.281" y2="163.534" gradientUnits="userSpaceOnUse">
<stop stop-color="white" stop-opacity="0.37"/>
<stop offset="1" stop-color="white" stop-opacity="0.06"/>
</linearGradient>
<linearGradient id="paint1_linear_3040_1078" x1="31.0039" y1="60.4775" x2="206.043" y2="213.026" gradientUnits="userSpaceOnUse">
<stop stop-color="#4487CF"/>
<stop offset="1" stop-color="#9E43EE"/>
</linearGradient>
</defs>
</svg>
