<svg width="350" height="14" viewBox="0 0 350 14" fill="none" xmlns="http://www.w3.org/2000/svg">
<path fill-rule="evenodd" clip-rule="evenodd" d="M0 11.4544V14H350V11.4544C343.373 11.4544 338 6.32611 338 0H319C319 6.32611 313.627 11.4544 307 11.4544C300.373 11.4544 295 6.32611 295 0H275C275 6.32611 269.627 11.4544 263 11.4544C256.373 11.4544 251 6.32611 251 0H231C231 6.32611 225.627 11.4544 219 11.4544C212.373 11.4544 207 6.32611 207 0H188C188 6.32611 182.627 11.4544 176 11.4544C169.373 11.4544 164 6.32611 164 0H144C144 6.32611 138.627 11.4544 132 11.4544C125.373 11.4544 120 6.32611 120 0H100C99.9999 6.32611 94.6274 11.4544 88 11.4544C81.3726 11.4544 76.0001 6.32611 76 0H56C55.9999 6.32611 50.6274 11.4544 44 11.4544C37.3726 11.4544 32.0001 6.32611 32 0H12C11.9999 6.32611 6.62737 11.4544 0 11.4544Z" fill="white" fill-opacity="0.15"/>
</svg>
