<?xml version="1.0" encoding="UTF-8" ?>
<!DOCTYPE svg PUBLIC "-//W3C//DTD SVG 1.1//EN" "http://www.w3.org/Graphics/SVG/1.1/DTD/svg11.dtd">
<svg width="512pt" height="512pt" viewBox="0 0 512 512" version="1.1" xmlns="http://www.w3.org/2000/svg">
<g id="#000000ff">
<path fill="#000000" opacity="1.00" d=" M 248.58 0.00 L 262.46 0.00 C 303.94 1.17 345.22 12.19 381.31 32.77 C 429.46 59.75 468.52 102.72 490.53 153.36 C 503.86 183.32 510.81 215.93 512.00 248.65 L 512.00 263.29 C 510.59 305.41 499.14 347.31 477.81 383.74 C 443.00 444.65 382.12 490.05 313.62 505.47 C 296.87 509.45 279.69 511.31 262.51 512.00 L 249.59 512.00 C 209.34 510.87 169.38 500.36 134.00 481.09 C 92.05 458.27 56.61 423.57 33.15 381.95 C 12.49 345.99 1.40 304.82 0.00 263.43 L 0.00 249.55 C 0.95 217.79 7.50 186.14 19.91 156.86 C 42.78 102.17 85.35 56.10 137.95 28.81 C 172.01 10.93 210.18 1.31 248.58 0.00 M 265.07 74.01 C 265.04 153.99 265.00 233.98 264.97 313.97 C 264.92 320.32 265.30 326.75 263.97 333.02 C 261.48 345.88 253.92 357.65 243.31 365.32 C 232.13 373.59 217.55 377.00 203.85 374.69 C 189.02 372.26 175.49 363.11 167.66 350.30 C 160.60 339.01 158.23 324.97 161.03 311.97 C 163.88 298.00 172.81 285.46 184.97 278.04 C 197.63 270.11 213.75 268.12 227.99 272.62 C 227.98 251.34 227.99 230.06 227.99 208.77 C 206.19 205.65 183.52 209.12 163.63 218.54 C 137.79 230.58 116.81 252.59 105.98 278.95 C 96.82 300.97 94.89 325.87 100.34 349.07 C 106.48 375.58 122.49 399.61 144.47 415.64 C 165.44 431.24 191.92 439.20 218.02 437.84 C 243.79 436.69 269.01 426.46 288.33 409.38 C 308.88 391.47 322.74 366.06 326.48 339.04 C 327.95 329.42 327.61 319.67 327.65 309.98 C 327.66 271.87 327.63 233.76 327.66 195.65 C 352.84 213.73 383.69 223.70 414.70 223.64 C 414.72 202.78 414.71 181.92 414.70 161.07 C 388.86 161.11 363.37 148.96 347.18 128.82 C 334.62 113.51 327.66 93.80 327.64 74.01 C 306.78 73.99 285.92 74.00 265.07 74.01 Z" />
</g>
</svg>
