<svg width="112" height="80" viewBox="0 0 112 80" fill="none" xmlns="http://www.w3.org/2000/svg">
<path d="M42.7727 21.0583L47.7747 45.0161H40.545L39.479 39.8774H30.7597L27.6847 45.0161H19.6896L23.0106 39.8774L15.002 39.8637L38.618 35.586L37.8664 32.142L37.2377 29.0534L35.9257 31.24L37.4427 31.8004H28.2313L35.174 21.072L42.7727 21.0583ZM87.9685 21.0583H70.5024C70.5708 21.1267 70.6254 21.2223 70.6664 21.3043C70.7348 21.4957 70.7758 21.7007 70.8031 21.9057C70.8578 22.261 70.9261 22.302 70.8851 22.5753C70.8031 23.0947 70.7074 23.04 70.5571 23.3543C70.4341 23.6003 70.3384 23.86 70.2701 24.1197C70.2701 24.1333 70.2701 24.147 70.2838 24.147C70.2838 24.147 70.2838 24.147 70.2974 24.147C70.3521 24.147 70.4751 24.1607 70.4751 24.3383C70.4888 24.5707 70.2154 25.0217 70.1334 25.1583C70.0514 25.295 69.8874 25.5547 69.7371 25.6367C69.4911 25.787 69.4091 25.6914 69.3818 25.7734C69.3544 25.8554 69.0948 26.32 69.0538 26.443C69.0128 26.607 68.9854 26.771 68.9718 26.9487C68.9718 26.976 68.9854 26.9897 68.9991 27.0034C69.5048 27.1947 70.8031 27.6594 71.1174 28.1924L66.7031 29.6274C67.3181 29.559 68.0014 29.477 68.6028 29.395C69.4228 29.2994 70.7484 29.149 71.1858 29.1627C71.5548 29.1764 71.9238 29.231 72.2928 29.2994C72.8121 29.3677 73.2631 29.3814 73.8234 29.5044C74.1241 29.5454 74.4111 29.682 74.6435 29.887C74.6708 29.9007 74.7801 29.9964 74.7801 29.9964C75.4635 29.9417 76.5158 29.887 76.7345 29.8597C76.8438 29.846 77.0761 29.8324 77.1308 29.8324C79.2491 29.559 80.4245 28.5477 81.4358 27.9327C82.5565 27.2494 84.2511 26.689 85.4538 26.6617C87.0118 26.6207 88.1325 26.894 88.8842 27.5637C89.6358 28.2334 89.9228 29.149 89.6222 30.502C89.3352 31.814 88.9115 32.4154 87.9548 33.0167C86.9981 33.618 85.9185 33.8094 84.6611 33.7C82.5701 33.5087 80.6841 32.1967 79.9461 31.773C79.3038 31.404 78.4291 31.0214 77.4451 30.9257C77.2538 30.912 77.0625 30.912 76.8711 30.9257C76.8028 30.9257 76.0101 30.9804 75.5045 31.0214C75.5455 31.1444 75.5591 31.2674 75.5728 31.3904C75.5591 31.65 75.4088 31.773 75.2585 31.7457C75.0945 31.732 74.7528 31.4587 74.6435 31.24C74.6298 31.2127 74.6025 31.2127 74.6025 31.24C74.6025 31.2674 74.6025 31.322 74.6025 31.3494C74.5888 31.4177 74.5478 31.6364 74.3974 31.6774C74.2335 31.7047 74.0695 31.6637 73.9328 31.568C73.8918 31.5407 73.8508 31.5544 73.8234 31.5817C73.8234 31.5817 73.8234 31.5954 73.8098 31.5954C73.7551 31.7457 73.7278 31.8414 73.4271 31.7867C73.2221 31.7594 73.2631 31.8414 73.1401 31.8687C72.8258 31.9234 72.6754 31.7594 72.4294 31.65C72.1834 31.5407 72.2654 31.2947 72.0194 31.2537C71.9648 31.24 71.8828 31.2264 71.8418 31.2264C72.0194 31.814 72.1561 32.4154 72.2381 33.0304C72.2381 33.0577 72.2244 33.0714 72.1971 33.0714L71.9374 33.0987C71.9101 33.0987 71.8964 33.1124 71.8964 33.1397C71.9648 33.4677 72.1151 34.0827 72.1561 34.52C72.2244 35.3127 72.2108 35.5587 72.1561 35.955C72.1561 35.9824 72.1698 35.996 72.1971 35.996H72.2108C72.3201 35.9824 72.4158 35.9414 72.4978 35.8867C72.5114 35.7227 72.5388 35.5724 72.5934 35.422C72.6208 35.381 72.6481 35.3537 72.6754 35.3264C72.7028 35.299 72.7164 35.2717 72.7164 35.2444L72.7848 35.012C72.7984 34.971 72.8121 34.9437 72.8258 34.9164L73.1674 34.2877C73.1674 34.2877 73.2494 34.1237 73.3861 34.151C73.5228 34.2194 73.6048 34.356 73.6184 34.52C73.6048 34.7114 73.5364 34.889 73.4544 35.053L73.6048 35.2854C73.7824 35.3264 73.9738 35.299 74.1241 35.1897C74.2061 35.135 74.2745 35.0804 74.3428 35.0257C74.2745 34.848 74.4384 34.6294 74.8484 34.7114C74.9988 34.766 75.4088 35.094 74.8895 35.4357C74.8758 35.4357 74.8758 35.4494 74.8758 35.463C74.8758 35.4767 74.8895 35.4767 74.9031 35.4767C75.4635 35.4357 75.3951 36.119 75.0125 36.324C74.9851 36.3377 74.9715 36.3787 74.9851 36.4061C74.9851 36.4061 74.9851 36.406 74.9851 36.4197C75.0671 36.529 75.1081 36.652 75.1081 36.7887C75.1081 36.7887 75.1081 36.9664 74.5614 37.1577C74.5614 37.1577 74.3974 37.2261 74.4658 37.3491C74.5341 37.3764 74.6024 37.4037 74.6981 37.4311C74.6981 37.4311 75.1901 37.5404 75.0945 37.8137C75.0945 37.8137 75.0125 38.0461 74.5478 37.8957C74.3975 37.9094 74.2471 37.8957 74.0968 37.8821C73.8098 37.9777 73.5091 38.0461 73.2084 38.1007C73.1128 38.1144 73.0171 38.1691 72.9624 38.2511C72.6618 38.5927 71.7324 39.0711 71.3224 39.0847C70.8714 39.0847 70.8031 38.7294 70.4751 38.3877C69.8191 37.7044 69.7098 36.857 69.6141 36.0097C69.6141 35.9824 69.5868 35.9687 69.5594 35.9687C69.5321 35.9687 69.5184 35.9824 69.5184 36.0097C69.4091 36.9937 69.3408 37.8821 68.7941 38.3741C68.4661 38.6747 67.9331 38.9071 67.0858 39.1121C63.8741 39.8774 60.4027 41.8454 60.7991 42.2964C60.9494 42.4741 61.3184 42.1187 61.9471 41.8317C64.3388 40.7247 67.4548 40.5061 68.4524 40.5881C68.5208 40.5881 68.5891 40.6564 68.5891 40.7247C68.6164 40.9707 68.6711 41.2031 68.7394 41.4354C68.8214 41.7497 68.9308 42.2964 69.2588 42.6107C69.8601 43.1711 69.7781 43.3761 69.6278 44.1277C69.5321 44.6197 70.2018 45.0297 70.2291 45.0434H77.1445L78.1831 39.9321H85.2078C92.3828 39.9321 95.5672 36.6521 96.7972 30.379C97.3712 27.3997 97.3438 21.0583 87.9685 21.0583ZM57.1227 45.0024C57.2184 44.8931 57.3277 44.7701 57.4644 44.6471C57.7651 44.3327 57.5327 43.5537 57.5874 43.2531C57.6694 42.8567 58.3527 42.6517 58.4484 42.2691C58.5987 41.7361 57.5464 41.8317 58.0521 41.2714C58.3664 40.9297 58.8174 41.0391 58.7901 40.6974C58.7354 40.1371 59.2821 39.7681 59.5144 39.5904C60.5121 38.8387 62.7398 37.6497 64.0928 37.2534C65.5141 36.8434 63.5598 36.8844 61.9471 37.4721C60.4847 38.0051 63.8468 35.9004 66.5118 35.2307C68.4114 34.7524 65.1178 34.6567 62.0837 35.996C61.1271 36.4197 60.5804 36.6794 60.1977 36.9254C60.1841 36.9254 60.1841 36.9254 60.1704 36.9254V36.9117C60.3207 36.611 60.6351 36.078 60.5394 35.5314C60.4711 35.1897 60.5121 34.8207 60.6624 34.5064C60.7717 34.2877 60.7034 33.7137 60.8401 33.3994C60.8537 33.372 60.8811 33.372 60.9084 33.372L62.5347 33.8777L68.9034 31.7047L62.8491 32.6067L60.7171 30.8164C60.4164 30.502 60.1157 29.2584 60.4164 28.7937C60.7307 28.3154 61.0997 27.8644 61.5097 27.4544C61.7967 27.2084 62.6714 27.099 63.0951 26.8804C63.5734 26.6344 63.9561 26.7984 64.3114 26.7437C64.6804 26.648 65.0494 26.5387 65.4184 26.402C65.4321 26.402 65.4321 26.3884 65.4321 26.3747C65.4321 26.238 65.4184 26.0877 65.3911 25.951C65.2954 25.5684 65.2544 25.1857 65.2818 24.7893C65.3228 24.4067 65.6508 24.0787 65.6644 23.8327C65.6781 23.5867 65.5004 23.327 65.6371 23.081C65.7601 22.8487 65.8011 22.671 65.9514 22.1927C65.9104 21.9057 65.7328 21.81 65.8694 21.5093C65.9378 21.359 66.0608 21.1403 66.1018 21.031H43.9617L45.2327 27.099H53.9521L52.9954 31.7594H59.5691L46.1484 34.192L52.4897 34.1784L50.2757 44.9751H57.1227V45.0024ZM80.4928 31.1307C80.6021 31.1854 80.7388 31.1307 80.7935 31.0214C80.8071 30.9804 80.8208 30.9394 80.8208 30.8984C80.8345 30.297 80.9301 30.0237 81.0668 29.5317C81.1215 29.3404 80.9575 29.1764 80.7935 29.272C79.8231 29.805 79.0988 30.0237 78.6751 30.1194C78.6068 30.133 78.5521 30.2014 78.5521 30.2697C78.5521 30.338 78.5795 30.3927 78.6478 30.42C79.2765 30.584 79.9051 30.83 80.4928 31.1307Z" fill="white"/>
<path d="M53.4477 49.0613H49.416L49.8123 47.1479H60.1307L59.707 49.0613H55.6754L53.5434 59.2977H51.2884L53.4477 49.0613Z" fill="white"/>
<path d="M72.8929 55.307C72.9065 54.8696 72.9475 54.4323 73.0432 54.0086L74.4782 47.1479H76.7332L75.2982 53.9676C75.2299 54.323 75.1752 54.6783 75.1615 55.0473C75.1479 56.701 76.2685 57.4936 77.9905 57.4936C79.9176 57.4936 81.2432 56.4413 81.7762 53.954L83.1976 47.1479H85.4252L83.9766 54.1043C83.2249 57.685 81.0246 59.4617 77.7582 59.4617C74.7652 59.4753 72.8655 57.8763 72.8929 55.307Z" fill="white"/>
<path d="M93.3933 55.4436L95.5253 59.2976H93.1336L91.1656 55.7306H87.8446L87.1202 59.284H84.8516L87.3936 47.1343H92.4092C95.3476 47.1343 97.0149 48.4873 96.9876 50.797C96.9739 53.175 95.6346 54.8286 93.3933 55.4436ZM94.7189 51.0156C94.7326 49.69 93.8033 49.0476 92.1496 49.0476H89.2659L88.2409 53.872H91.2339C93.4206 53.8856 94.6916 52.888 94.7189 51.0156Z" fill="white"/>
<path d="M71.6793 53.2164C71.5563 54.0364 71.3103 54.829 70.9549 55.5807C70.5586 56.4007 70.0119 57.125 69.3423 57.7264C68.6726 58.3277 67.8799 58.7787 67.0326 59.0657C66.2536 59.3254 65.4336 59.462 64.6136 59.462C63.8209 59.4757 63.0419 59.339 62.3039 59.0657C61.5522 58.7924 60.8962 58.3277 60.3769 57.7264C59.8712 57.1114 59.5296 56.3734 59.3792 55.5807C59.2426 54.8017 59.2289 53.9954 59.3519 53.2164C59.4749 52.3963 59.7072 51.6037 60.0626 50.852C60.4589 50.032 61.0056 49.3077 61.6889 48.7063C62.3586 48.105 63.1512 47.654 63.9986 47.367C64.7776 47.1073 65.5976 46.9707 66.4176 46.9843C67.2102 46.9707 67.9893 47.1073 68.7409 47.3807C69.4926 47.654 70.1486 48.105 70.6679 48.72C71.1736 49.335 71.5153 50.073 71.6656 50.8657C71.7886 51.631 71.7886 52.4237 71.6793 53.2164ZM69.4379 53.2164C69.6019 52.0273 69.4926 50.9203 68.9186 50.1413C68.6179 49.745 68.2216 49.4307 67.7569 49.2393C67.2376 49.0343 66.6909 48.925 66.1306 48.9387C65.5429 48.9387 64.9689 49.0343 64.4222 49.2393C63.8892 49.4443 63.4109 49.7587 63.0009 50.155C62.2082 50.934 61.7709 52.041 61.5932 53.23C61.4292 54.4054 61.5386 55.526 62.1126 56.2914C62.4132 56.6877 62.8096 57.002 63.2742 57.1934C63.7936 57.3984 64.3402 57.5077 64.9006 57.494C65.4882 57.494 66.0622 57.3984 66.6089 57.1934C67.1419 56.9884 67.6202 56.6877 68.0303 56.2914C68.8229 55.5124 69.2466 54.3917 69.4379 53.2164Z" fill="white"/>
<path d="M94.1444 44.0045H93.748L93.8027 43.7722H94.8824L94.8277 44.0045H94.4314L94.2264 45.0159H93.9394L94.1444 44.0045ZM96.4131 43.7722L96.1671 45.0022H95.8937L96.0441 44.2642L95.5794 44.8655H95.4564L95.2104 44.2505L95.06 44.9885H94.7867L95.0327 43.7585H95.265L95.5794 44.5239L96.1807 43.7585L96.4131 43.7722Z" fill="white"/>
</svg>
