<svg width="112" height="80" viewBox="0 0 112 80" fill="none" xmlns="http://www.w3.org/2000/svg">
<path fill-rule="evenodd" clip-rule="evenodd" d="M22.0215 7H89.6377V61.4888H22.0215V7ZM77.3769 36.0681C77.6114 35.9477 77.7264 35.8318 77.7264 35.7158C77.6114 35.0069 76.9078 35.1273 76.5583 35.2432C75.8559 35.2536 75.1536 35.2148 74.4565 35.1273C74.2219 35.0774 73.9615 35.0482 73.6621 35.0146C73.2386 34.9671 72.7371 34.9108 72.1201 34.775L70.2529 34.3023C68.6607 33.9183 67.1738 33.2532 65.658 32.5753C64.3934 32.0097 63.1088 31.4351 61.7262 31.0072L61.4961 31.2435C60.9488 30.9275 60.1306 30.9284 59.5161 30.929C59.2114 30.9294 58.9568 30.9296 58.8102 30.8912C57.1638 30.1988 55.4356 29.7237 53.6685 29.4777L53.5534 28.8891C53.5534 28.8891 46.779 27.9572 45.2613 27.8279C45.7303 24.769 47.1285 21.7146 47.8321 20.1897L49.6994 20.3056L50.0489 19.4851C50.0489 19.4851 50.4118 18.7583 50.6463 18.4061C50.7694 18.2212 50.8912 18.1333 50.9965 18.0574C51.0919 17.9887 51.1736 17.9298 51.2304 17.8175C51.2774 17.7245 51.2511 17.5224 51.2162 17.2542C51.1624 16.8407 51.0881 16.2701 51.2304 15.6994C51.2767 15.4711 51.3577 15.2783 51.4325 15.1003C51.5505 14.8194 51.6531 14.5752 51.5799 14.286C51.2304 12.8769 49.2436 11.5793 47.8454 11.5793C45.1595 11.5793 44.3409 13.8088 44.4559 15.5924C41.5399 14.6516 35.4646 15.3561 35.4646 15.3561L35.3496 15.9447C35.3496 15.9447 34.4159 15.8243 33.9469 16.297C32.1769 18.1786 29.1636 22.1873 29.1636 22.1873C28.8486 22.1851 28.5393 22.2721 28.2709 22.4384C28.0026 22.6048 27.786 22.8438 27.6459 23.1281C27.1872 23.5753 26.6242 23.8988 26.0087 24.069C25.6591 24.1849 25.7786 24.6576 26.0087 24.6576C26.4209 24.7594 26.922 24.4997 27.3558 24.2748C27.4156 24.2438 27.474 24.2135 27.5308 24.1849C27.29 24.5854 26.7807 24.9323 26.4059 25.1875C26.2299 25.3073 26.0836 25.407 26.0087 25.4825C25.8936 25.4825 25.8936 25.5984 26.0087 25.7143C26.3671 26.3029 27.8804 25.9507 28.5795 25.4825C28.958 25.245 29.3109 24.9685 29.6327 24.6576C29.6327 24.6576 29.8627 23.5963 30.0973 23.4804C31.1574 22.6265 32.8918 21.0933 34.5991 19.5839C34.7731 19.4301 34.9468 19.2765 35.1195 19.124C36.9573 19.2568 38.1312 19.353 38.8486 19.4118C39.4076 19.4576 39.6894 19.4807 39.7921 19.4807L38.0222 20.1852C36.9691 22.321 35.8009 29.6159 36.1549 30.4409C36.2969 30.3387 36.4536 30.259 36.6195 30.2045C36.385 31.1454 36.6195 33.852 36.6195 33.852C36.854 36.4293 37.6726 39.7379 38.0222 40.4424L38.624 40.5494C38.739 41.4902 39.6727 43.8446 40.1417 44.9014C38.3583 45.0068 35.961 47.3274 33.9241 49.2992C33.808 49.4115 33.6932 49.5227 33.5796 49.6323C33.1738 50.01 32.6534 50.2388 32.1026 50.2817C31.5518 50.3246 31.0028 50.1791 30.5442 49.8687C30.371 49.753 30.1678 49.6914 29.9601 49.6914C29.7523 49.6914 29.5492 49.753 29.376 49.8687L29.2565 49.9846C29.1415 49.9846 29.1415 49.9846 29.0264 50.105L28.907 50.3369C28.7919 50.4573 28.7919 50.5732 28.907 50.5732H29.0264C28.907 50.6891 28.7919 50.8095 28.7919 50.9255H28.6725C28.5574 50.8095 28.4424 50.9254 28.4424 51.0458L28.5574 51.2822C28.4424 51.3981 28.4424 51.514 28.5574 51.514C28.3833 51.9781 28.093 52.2995 27.8021 52.6215C27.5089 52.9461 27.2152 53.2712 27.0397 53.7435H26.9246C26.8052 53.6231 26.6901 53.7435 26.6901 53.8595L26.5707 54.0958C26.4556 54.2117 26.4556 54.3321 26.5707 54.3321H26.6901C26.6901 54.4503 26.6603 54.5673 26.6304 54.6844C26.6005 54.8014 26.5707 54.9185 26.5707 55.0366H26.4556C26.3923 55.1003 26.3518 55.1835 26.3406 55.273V55.5093C26.3406 55.6252 26.3406 55.7412 26.4556 55.7412H26.5707V56.5661C26.5707 57.1547 27.5087 57.391 27.7388 56.9183C29.2552 53.9355 32.9749 52.6096 36.932 51.1991C38.7483 50.5516 40.6147 49.8864 42.3408 49.0348C42.3408 48.9769 42.3121 48.9178 42.2833 48.8587C42.2546 48.7996 42.2258 48.7405 42.2258 48.6826L43.394 48.094C43.6776 47.9134 43.9509 47.7169 44.2126 47.5054C44.5252 47.3674 44.7747 47.1159 44.9117 46.8009C45.0788 46.4732 45.1596 46.1078 45.1462 45.7396C45.1462 45.4805 45.1216 45.1413 45.0947 44.771C45.0623 44.3258 45.0267 43.8356 45.0267 43.3853C44.9708 42.9278 44.942 42.4428 44.9141 41.9704C44.8845 41.4715 44.8557 40.9865 44.7966 40.5628C44.9474 40.5358 45.0954 40.4955 45.2391 40.4424L44.7966 36.4293L43.394 35.7381H52.5224C52.5409 35.5759 52.5811 35.4169 52.6419 35.2655C53.9849 35.3257 54.8311 35.3257 55.6337 35.3257C56.4362 35.3257 57.1951 35.3257 58.3633 35.3859C58.9688 35.3859 59.3797 35.6571 59.7971 35.9326C60.1057 36.1362 60.4178 36.3422 60.8146 36.4427C62.2038 36.7778 63.2526 36.7406 64.4467 36.6983C65.7629 36.6516 67.2558 36.5987 69.5758 37.0312C69.6498 37.0353 69.7214 37.0594 69.7829 37.101C69.8444 37.1426 69.8937 37.2001 69.9254 37.2676C69.9822 37.4415 70.011 37.7013 70.0399 37.9627C70.0696 38.2307 70.0994 38.5005 70.1599 38.6811C70.5095 39.3633 70.9741 39.3633 71.4431 39.127L71.5582 39.2429H71.7706L72.0051 39.127C72.1201 39.011 72.1201 39.011 72.1201 38.8906L72.0051 38.7747L72.3547 38.6588L72.4697 38.7747H72.7042L72.9387 38.6588C73.0053 38.5891 73.0334 38.5597 73.0452 38.5249C73.0538 38.4995 73.0538 38.4713 73.0538 38.4225V38.3021C73.4549 38.1019 73.8762 37.9229 74.291 37.7466C74.8465 37.5106 75.3905 37.2795 75.8591 37.009V37.1249H76.0937L76.3238 37.009C76.4432 36.893 76.4432 36.893 76.4432 36.7726V36.6567L76.6777 36.5363V36.6567H76.9078L77.1424 36.5363C77.2618 36.4204 77.2618 36.4204 77.2618 36.3044V36.184L77.3769 36.0681ZM80.0776 27.0603C80.6908 26.6447 81.4124 26.4215 82.1513 26.4189H82.1778C83.1654 26.4282 84.1097 26.8286 84.8068 27.5336C85.5038 28.2385 85.8978 29.1915 85.9036 30.1867C85.9036 30.9313 85.6846 31.6593 85.2743 32.2786C84.8641 32.8979 84.2809 33.3809 83.5985 33.6664C82.916 33.952 82.1649 34.0274 81.44 33.8831C80.7151 33.7388 80.0488 33.3813 79.5254 32.8557C79.0019 32.3301 78.6448 31.6599 78.499 30.9299C78.3533 30.1999 78.4254 29.4428 78.7064 28.7541C78.9874 28.0653 79.4645 27.476 80.0776 27.0603Z" fill="white"/>
<path d="M27.9868 69.8719C27.9868 71.1694 27.3762 71.8606 25.7744 71.8606H22V64.5612H25.6107C27.2966 64.5612 27.8762 65.2256 27.8762 66.4697C27.8762 67.406 27.5222 67.843 26.5488 68.0883L26.3541 68.1373L26.5178 68.1685C27.6328 68.4271 27.9868 68.8463 27.9868 69.8719ZM23.7345 67.6424H25.2567C25.8673 67.6424 26.1417 67.3837 26.1417 66.7506C26.1417 66.1174 25.885 65.8276 25.2567 65.8276H23.7345V67.6424ZM26.239 69.7247C26.239 69.0648 25.9647 68.7749 25.354 68.7749H23.7345V70.6656H25.354C25.9824 70.6254 26.239 70.3534 26.239 69.7024V69.7247ZM29.1727 69.5151V64.5612H30.9869V69.426C30.9869 70.233 31.3586 70.5407 32.3365 70.5407C33.3144 70.5407 33.6861 70.233 33.6861 69.426V64.5612H35.4958V69.4661C35.4958 71.1783 34.5046 71.972 32.3497 71.972C30.1948 71.972 29.1727 71.2096 29.1727 69.4928V69.5151ZM43.9561 64.5835V71.8918H41.7437L38.6463 66.6034V71.8918H36.9914V64.5612H39.2038L42.3013 69.8496V64.5612L43.9561 64.5835ZM45.4473 64.5835H48.673C51.2085 64.5835 51.8855 65.6358 51.8855 68.222C51.8855 70.8082 51.1598 71.8784 48.673 71.8784H45.4517L45.4473 64.5835ZM48.6244 70.505C49.6863 70.505 50.0226 69.9521 50.0226 68.2399C50.0226 66.5276 49.6863 66.0104 48.6244 66.0104H47.2438V70.5229L48.6244 70.505ZM53.1997 64.5835H58.2838V65.9747H55.0139V67.5131H57.7263V68.8864H55.0139V70.4872H58.3502V71.8784H53.1997V64.5835ZM59.3945 71.6019V70.1795C60.1738 70.4474 60.9915 70.5844 61.8149 70.5853C62.6512 70.5853 63.0229 70.3579 63.0229 69.7916C63.0229 69.3056 62.8591 69.145 62.2043 69.0157L61.0007 68.7571C59.7485 68.4985 59.3281 67.9813 59.3281 66.7327C59.3281 65.132 60.2617 64.4364 62.1556 64.4364C62.9436 64.4285 63.7264 64.566 64.4654 64.8421V66.2645C63.7551 66.0095 63.0069 65.8783 62.2529 65.8766C61.368 65.8766 61.0671 66.1219 61.0671 66.6881C61.0671 67.1563 61.275 67.299 61.8503 67.415L63.0229 67.6736C64.3857 67.9634 64.7574 68.4316 64.7574 69.7426C64.7574 71.3121 63.7928 72.0256 61.8503 72.0256C61.0181 72.0198 60.1933 71.8689 59.4122 71.5797L59.3945 71.6019ZM66.0052 64.5835H67.8194V70.4872H70.9168V71.8784H66.0406L66.0052 64.5835ZM72.0584 64.5835H73.8682V71.8918H72.0584V64.5835ZM81.3506 67.6736V71.651C80.5401 71.9061 79.6952 72.0324 78.8462 72.0256C76.3284 72.0256 75.1425 70.9063 75.1425 68.2399C75.1425 65.5734 76.3284 64.4542 78.8462 64.4542C79.6621 64.44 80.4736 64.5776 81.24 64.86V66.2645C80.5161 66.015 79.7572 65.8841 78.9922 65.8766C77.47 65.8766 77.001 66.4919 77.001 68.222C77.001 70.0056 77.501 70.6165 78.9302 70.6165C79.2471 70.6191 79.5637 70.5968 79.8771 70.5496V68.9355H78.5276V67.6424L81.3506 67.6736ZM87.2578 70.349H84.4171L83.948 71.8695H82.1515L84.7356 64.5612H87.0454L89.6295 71.8695H87.8153L87.2578 70.349ZM85.8463 65.7205L84.833 69.0113H86.9215L85.8463 65.7205Z" fill="white"/>
</svg>
