<svg width="112" height="80" viewBox="0 0 112 80" fill="none" xmlns="http://www.w3.org/2000/svg">
<path fill-rule="evenodd" clip-rule="evenodd" d="M49.995 7.42626C47.7498 7.88476 45.3613 8.89047 45.3613 8.89047C46.544 7.27969 48.9445 5.30635 48.9445 5.30635C48.284 4.06536 47.6992 2.22797 47.6992 2.22797C47.6992 2.22797 50.4752 2.38033 52.6482 3.08568C52.6482 3.08568 56.3398 1.06219 60.165 1C60.165 1 57.3769 2.60982 56.1923 4.10875C56.5066 4.27412 58.7365 4.94138 60.4731 5.96493C60.4731 5.96493 57.3335 6.05365 54.4523 6.44802C54.4523 6.44802 53.4379 7.87897 52.5802 11.1357C52.5797 11.1357 51.1025 9.50856 49.995 7.42626Z" fill="white"/>
<path fill-rule="evenodd" clip-rule="evenodd" d="M64.9106 10.1226C63.0096 8.00804 60.4727 5.96479 60.4727 5.96479C62.8061 5.99805 66.2693 7.375 66.2693 7.375C66.9462 6.09544 67.4201 4.33472 67.4201 4.33472C67.4201 4.33472 68.745 6.57709 69.3467 9.05666C69.3467 9.05666 72.0972 10.7036 74.1728 13.4599C74.1728 13.4599 72.007 13.0082 70.4127 13.0159C70.4078 13.3717 70.9975 16.2972 70.8692 18.3087C70.8692 18.3087 69.1037 15.4395 67.4471 13.0496C67.4471 13.0496 64.7843 13.0978 61.9865 13.8625C61.987 13.8625 63.5539 12.0526 64.9106 10.1226ZM67.9572 23.9061C69.3592 21.5423 70.8697 18.3091 70.8697 18.3091C71.333 20.4715 71.3745 23.2302 71.3745 23.2302C72.7654 22.9371 75.2276 21.7559 75.2276 21.7559C75.2276 21.7559 74.1308 24.6775 71.672 26.918C71.672 26.918 71.9207 28.6686 71.9497 30.9784C71.9497 30.9784 70.2106 30.2037 68.7686 29.3373C68.4615 29.5162 66.7186 30.7017 63.7743 31.3111C63.7743 31.3111 65.021 29.3633 66.0523 27.4609C66.0523 27.4609 63.9994 26.1085 62.3732 23.8922C62.3732 23.8917 65.535 24.2909 67.9572 23.9061Z" fill="white"/>
<path fill-rule="evenodd" clip-rule="evenodd" d="M58.041 19.0824C60.1918 21.7466 62.3744 23.8921 62.3744 23.8921C58.8086 23.3622 55.9134 22.3623 55.9134 22.3623C54.4651 24.6842 52.8847 27.3836 52.8847 27.3836C52.8847 27.3836 52.0009 24.4552 51.8515 21.1314C51.8515 21.1314 50.0604 20.5047 46.7593 19.2048C46.7593 19.2048 49.0363 17.7913 51.7922 17.0203C51.6311 16.7026 52.0535 12.7511 52.5819 11.136C52.5819 11.136 54.1888 13.7409 55.4973 15.6559C55.4973 15.6559 58.0584 14.7871 61.9891 13.8624C61.9887 13.8624 59.8379 16.5917 58.041 19.0824ZM38.4624 29.1598C38.2458 28.7524 38.044 28.3373 37.8573 27.9154C37.8949 26.5023 38.0212 24.6823 38.3828 23.2706C38.3828 23.2706 37.3467 22.5518 36.2754 21.6174C36.2634 21.4549 36.2494 21.291 36.2402 21.1266C36.8554 20.8971 38.1615 20.4357 39.3022 20.1715C39.4329 19.8393 40.143 17.5507 41.5157 15.9717C41.5157 15.9717 41.6082 17.5275 41.9814 19.5987C41.9814 19.5987 44.1481 19.1079 46.7588 19.2039C46.7588 19.2039 44.3395 21.1092 42.816 23.045C43.3685 25.2767 44.4803 27.4188 44.4803 27.4188C42.8188 26.4787 41.0615 25.2333 41.0615 25.2333C40.4444 25.9671 39.2039 27.9468 38.4624 29.1598ZM52.2835 39.2936C52.0145 39.2451 51.7469 39.19 51.4807 39.1282C50.5738 38.1558 49.1906 36.5681 48.1343 34.8995C48.1343 34.8995 44.2377 34.5851 41.492 33.3827C41.492 33.3827 43.7628 32.956 46.2564 31.6702C46.0954 31.3525 45.1446 29.5995 44.4798 27.4198C44.4798 27.4198 46.8615 29.344 48.6261 30.4702C48.6261 30.4702 50.8684 29.18 52.8842 27.3836C52.8842 27.3836 52.3731 29.8666 52.0901 32.7024C53.3925 33.4462 54.7056 34.1709 56.0291 34.8764C53.996 35.1724 51.9947 35.1102 51.9947 35.1102C51.9156 36.6848 52.1273 38.3399 52.2835 39.2936ZM69.2355 34.2303C69.2355 34.2303 66.5481 34.9405 63.9254 35.0388C63.9254 35.0388 63.9056 33.2497 63.7754 31.311C63.7754 31.311 62.3826 33.2877 60.5645 35.1888C58.4176 35.1579 56.0291 34.8768 56.0291 34.8768C56.8482 35.7104 57.6908 36.5206 58.5559 37.3063C56.9389 38.6808 55.4443 39.5993 55.4443 39.5993C55.6564 39.6022 55.8724 39.6036 56.086 39.6007C61.1903 39.5173 65.8032 37.4856 69.2355 34.2303Z" fill="white"/>
<path fill-rule="evenodd" clip-rule="evenodd" d="M36.4753 16.8038C36.4753 16.8038 37.9111 15.0132 39.587 13.5591C39.587 13.5591 40.1472 14.5937 41.5145 15.9721C41.5145 15.9721 41.5246 14.2876 41.7204 11.6446C43.2516 10.2908 45.3619 8.89019 45.3619 8.89019C43.6118 8.77882 42.3057 8.86415 42.3057 8.86415C42.7116 6.85851 43.6286 4.7063 43.6286 4.7063C39.9076 7.65691 37.2887 11.9338 36.4753 16.8038ZM74.0547 68.6618C71.5462 68.6618 70.0226 66.5602 70.0226 64.2556C70.0226 61.8609 71.7988 60.1257 74.1169 60.1257C76.6856 60.1257 78.2337 62.1651 78.2337 64.4065C78.2337 67.0621 76.3081 68.6618 74.0547 68.6618ZM73.9144 61.333C72.3532 61.333 71.887 62.8189 71.887 63.8256C71.887 65.2975 72.5422 67.4511 74.343 67.4511C75.6273 67.4511 76.3703 66.308 76.3703 64.9349C76.3703 63.475 75.8043 61.333 73.9144 61.333ZM58.7047 67.4661C58.7047 67.9188 58.7915 68.0818 59.5229 68.223V68.5364C58.7293 68.4988 58.2366 68.4612 57.7723 68.4612C57.3051 68.4612 56.8148 68.4988 56.2608 68.5364V68.2201C56.7507 68.1333 56.8403 67.9188 56.8403 67.3263V61.1695C56.8403 60.8156 56.689 60.6507 56.2608 60.6382V60.2877H59.9872C62.3178 60.2877 63.1625 61.3961 63.1625 62.8584C63.1625 64.4205 61.9779 65.3785 60.3536 65.3785C59.737 65.3785 58.831 65.0622 58.831 64.7975C58.831 64.6847 58.9063 64.6847 59.0196 64.6847C59.1329 64.6847 59.2953 64.7223 59.4593 64.7223C60.7812 64.7223 61.299 63.9794 61.299 62.9341C61.299 61.7992 60.5927 61.3966 59.4834 61.3966L58.7047 61.4805V67.4661ZM65.5967 61.0919C65.5967 60.7404 65.4463 60.5751 65.0177 60.5635V60.2356C65.5712 60.2733 66.061 60.3109 66.5282 60.3109C66.9954 60.3109 67.4857 60.2733 68.0387 60.2356V60.5635C67.612 60.5746 67.4597 60.7404 67.4597 61.0919V67.6917C67.4597 68.0456 67.612 68.2086 68.0387 68.223V68.5364C67.4862 68.4988 66.9944 68.4612 66.5282 68.4612C66.061 68.4612 65.5717 68.4988 65.0177 68.5364V68.223C65.4463 68.209 65.5967 68.0461 65.5967 67.6917V61.0919ZM80.7591 61.0861C80.7591 60.7346 80.6068 60.5693 80.1781 60.5577V60.227C80.7326 60.2636 81.2244 60.3051 81.6906 60.3051C82.0305 60.3051 82.408 60.3051 82.7999 60.227L86.2756 65.8611H86.3002V61.2631C86.3002 60.6069 85.8851 60.5577 85.5452 60.5577V60.227C85.9603 60.2636 86.3624 60.3051 86.7543 60.3051C87.1695 60.3051 87.585 60.2636 87.9895 60.227V60.5577C87.56 60.5688 87.4086 60.7346 87.4086 61.0861V68.5364H86.0731L81.8921 62.0325H81.8675V67.509C81.8675 68.1652 82.2807 68.2143 82.6225 68.2143V68.5306C82.2074 68.493 81.8034 68.4525 81.4134 68.4525C80.9982 68.4525 80.5817 68.493 80.1781 68.5306V68.2143C80.6068 68.2033 80.7591 68.0374 80.7591 67.6859V61.0861ZM90.5636 65.6721C90.8216 67.0857 91.7492 67.7476 93.1382 67.7476C93.9009 67.7476 95.0045 67.5273 95.0045 66.5544C95.0045 65.7767 94.2003 65.5704 93.6044 65.3876L92.6826 65.1148C91.3606 64.7257 90.0386 64.1683 90.0386 62.639C90.0386 60.6305 91.983 60.0211 93.9144 60.0211C94.7335 60.0211 95.5744 60.1633 96.327 60.4362C96.327 61.3706 96.3785 62.1593 96.4296 62.8338H96.1057C95.8337 61.6406 94.8627 61.0832 93.696 61.0832C93.0451 61.0832 91.9584 61.2925 91.9584 62.1858C91.9584 62.9004 92.5789 63.1057 93.1112 63.2605L94.4717 63.652C95.7807 64.0256 97 64.5078 97 66.1918C97 67.901 95.2759 68.8098 93.1628 68.8098C92.2163 68.8098 91.2183 68.6565 90.35 68.3426C90.35 67.3181 90.3115 66.4261 90.2454 65.6721H90.5636ZM25.0822 61.0919C25.0822 60.7404 24.9318 60.5751 24.5017 60.5635V60.2356C25.0562 60.2733 25.548 60.3109 26.0142 60.3109C26.4804 60.3109 26.9702 60.2733 27.5252 60.2356V60.5635C27.097 60.5746 26.9476 60.7404 26.9476 61.0919L26.9461 63.5855L29.9936 63.5883V61.0919C29.9936 60.7404 29.8442 60.5751 29.416 60.5635V60.2356C29.969 60.2733 30.4613 60.3109 30.9266 60.3109C31.3923 60.3109 31.8845 60.2733 32.4361 60.2356V60.5635C32.0094 60.5746 31.858 60.7404 31.858 61.0919V67.6917C31.858 68.0456 32.0089 68.2086 32.4361 68.2201V68.5422C31.8841 68.5056 31.3923 68.467 30.9251 68.467C30.4613 68.467 29.969 68.5056 29.4146 68.5422V68.2201C29.8442 68.209 29.9936 68.0461 29.9936 67.6917V64.7951H26.9461V67.6917C26.9461 68.0456 27.097 68.2086 27.5256 68.2201V68.5422C26.9712 68.5056 26.4809 68.467 26.0147 68.467C25.5489 68.467 25.0567 68.5056 24.5022 68.5422V68.2201C24.9304 68.209 25.0827 68.0461 25.0827 67.6917V61.0919H25.0822ZM37.0987 64.932C37.4251 64.0411 37.8282 63.045 38.1175 62.0383H38.1435C38.3956 63.3097 38.6097 64.1168 38.8739 64.932H37.0987ZM34.0493 68.5369C34.4909 68.4993 34.92 68.4617 35.3597 68.4617C35.7878 68.4617 36.2295 68.4993 36.6571 68.5369V68.2206C36.2405 68.1941 36.0646 68.0466 36.0646 67.8176C36.0646 67.6922 36.1022 67.5529 36.1663 67.3759L36.7188 65.89H39.1743L39.5778 67.1151C39.6419 67.2781 39.7041 67.5678 39.7041 67.7423C39.7041 68.0326 39.5402 68.1338 39.074 68.2206V68.5369C39.6154 68.4993 40.1569 68.4617 40.6992 68.4617C41.2262 68.4617 41.7691 68.4993 42.2985 68.5369V68.2206C41.9214 68.1218 41.731 67.9569 41.5425 67.4025L39.2249 60.2366C38.8339 60.2742 38.4308 60.3118 38.0403 60.3118C37.6512 60.3118 37.2593 60.2742 36.8572 60.2366V60.5644C37.1966 60.5644 37.3364 60.765 37.3364 60.8933C37.3364 61.0177 37.2463 61.1946 37.1725 61.3831L34.7035 67.6411C34.5777 67.9718 34.4138 68.1724 34.0478 68.2211V68.5369H34.0493ZM44.8407 62.2765C44.8537 61.925 44.8769 61.5711 44.8769 61.0692C44.8769 60.6768 44.7896 60.6276 44.3113 60.5635V60.2356C44.6884 60.2733 45.1425 60.3109 45.5972 60.3109C46.0499 60.3109 46.504 60.2733 46.9568 60.2356L49.161 66.0747L51.1363 60.2356C51.5794 60.2733 52.0075 60.3109 52.4482 60.3109C52.8879 60.3109 53.329 60.2733 53.7571 60.2356V60.5635C53.3175 60.6011 53.2533 60.7404 53.2533 61.0803C53.2533 61.4342 53.3035 62.0002 53.3406 62.4269L53.7456 67.8055C53.7707 68.1334 54.1347 68.182 54.3873 68.2196V68.5359C53.8444 68.4983 53.2919 68.4607 52.75 68.4607C52.1955 68.4607 51.6546 68.4983 51.1358 68.5359V68.2196C51.7544 68.1444 51.9183 68.0311 51.9183 67.4531C51.9183 67.1488 51.8793 66.5828 51.8431 66.1677L51.5524 62.4153H51.5278L49.4248 68.6058H48.367L45.9607 62.3401H45.9342L45.8344 66.0284C45.8228 66.6846 45.7963 67.0245 45.7963 67.3639C45.7963 67.994 45.859 68.1333 46.6154 68.2196V68.5359C46.1116 68.4983 45.6454 68.4607 45.1666 68.4607C44.7023 68.4607 44.2347 68.4983 43.8446 68.5359V68.2196C44.3364 68.182 44.5379 68.0692 44.563 67.5408L44.8407 62.2765ZM22.6046 68.0755C21.7425 68.7375 20.5064 69.0021 19.6993 69.0021C16.6966 69.0021 15 66.6735 15 64.2855C15 61.844 16.6966 59.4811 19.9505 59.485C21.0897 59.485 21.9069 59.7014 22.2271 59.8268C22.2271 60.7814 22.2782 61.7018 22.349 62.613H21.9846C21.7628 61.4492 20.9499 60.8315 19.7822 60.8315C18.1989 60.8315 16.9753 62.0793 16.9753 64.1867C16.9753 65.7743 18.2809 67.5712 20.1168 67.5712C20.895 67.5712 22.014 67.1445 22.7656 66.512L22.6046 68.0755ZM36.2391 73.0906C36.2391 72.8186 36.1215 72.6904 35.7922 72.6817V72.4141C36.2203 72.446 36.5988 72.4725 36.9575 72.4725C37.3668 72.4725 37.9608 72.446 38.2418 72.4141V72.6817C37.7457 72.7015 37.6778 72.9454 37.6778 73.2154V77.9784H39.4756C40.1183 77.9784 40.381 77.6857 40.5454 76.9452H40.8617C40.7441 77.5777 40.6371 78.2021 40.6269 78.8351H35.7922V78.5675C36.1215 78.5588 36.2391 78.4311 36.2391 78.1577V73.0906ZM42.4272 73.1224C42.4272 72.8505 42.3095 72.7222 41.9803 72.7135V72.4489H46.8922C46.8977 72.9473 46.9234 73.4452 46.9693 73.9415H46.7032C46.6063 73.4068 46.4703 73.2212 45.9457 73.2212H43.8649V75.1015H45.1579C45.5943 75.1015 45.6627 74.9535 45.7206 74.6054H45.9862C45.9515 74.9131 45.9321 75.2224 45.9279 75.5321C45.9279 75.7929 45.9568 76.2196 45.9862 76.4548H45.7206C45.6623 76.1034 45.5943 75.9587 45.1579 75.9587H43.8649V77.9784H46.0518C46.5773 77.9784 46.7413 77.8014 46.9076 76.9857H47.2316C47.1622 77.5998 47.1235 78.2171 47.1154 78.8351H41.9803V78.5675C42.3095 78.5588 42.4272 78.4311 42.4272 78.1577V73.1224ZM48.3978 78.5709C48.6789 78.5304 48.8057 78.3761 48.9031 78.1235L50.8099 73.3061C50.8683 73.1571 50.9362 73.0245 50.9362 72.9286C50.9362 72.8297 50.8282 72.6735 50.566 72.6735V72.4088C50.8764 72.4382 51.1787 72.4672 51.4801 72.4672C51.7819 72.4672 52.0924 72.4378 52.3947 72.4088L54.1833 77.9412C54.3304 78.365 54.475 78.4933 54.7667 78.5714V78.8361C54.3574 78.8067 53.9408 78.7777 53.532 78.7777C53.114 78.7777 52.696 78.8071 52.278 78.8361V78.5714C52.6381 78.5015 52.764 78.4234 52.764 78.203C52.764 78.0666 52.7148 77.8424 52.6666 77.718L52.3551 76.7774H50.4594L50.0313 77.9205C49.9821 78.0541 49.9527 78.1616 49.9527 78.2604C49.9527 78.4316 50.0891 78.5506 50.4097 78.5714V78.8361C50.079 78.8067 49.7396 78.7777 49.4084 78.7777C49.067 78.7777 48.7382 78.8071 48.3969 78.8361V78.5709H48.3978ZM52.1213 76.0397C51.9183 75.4096 51.7515 74.7891 51.5567 73.808H51.5379C51.3147 74.5827 51.0028 75.3522 50.7501 76.0397H52.1213ZM59.9684 76.5595C59.9684 76.1704 59.7924 76.1525 59.3561 76.1444V75.8165C59.7543 75.8483 60.1535 75.8777 60.5614 75.8777C61.0001 75.8777 61.4278 75.8483 61.8646 75.8165V76.1236C61.5237 76.1333 61.3497 76.2196 61.3497 76.6583V78.8356H60.7846L60.5614 78.1823C59.9491 78.7565 59.3059 78.96 58.6459 78.96C56.8172 78.96 55.6505 77.4533 55.6505 75.7037C55.6505 73.5934 57.0612 72.3158 59.1613 72.3158C59.8329 72.3158 60.5561 72.4411 61.0787 72.7685C61.0787 73.2448 61.0985 73.794 61.138 74.4637H60.8574C60.7321 73.5992 59.91 73.1725 59.1039 73.1725C57.7506 73.1725 57.0906 74.2057 57.0906 75.4597C57.0906 76.667 57.7713 78.0275 58.8985 78.0275C59.5899 78.0275 59.9684 77.7064 59.9684 77.259V76.5595ZM63.8201 73.0906C63.8201 72.8186 63.7024 72.6904 63.3736 72.6817V72.4141C63.7446 72.4521 64.1173 72.4715 64.4902 72.4725C64.997 72.4725 65.3962 72.446 65.7852 72.4141V72.6817C65.3653 72.7015 65.2597 72.7777 65.2597 73.1571V76.7909C65.2597 77.8916 65.7173 78.1027 66.5046 78.1027C67.2919 78.1027 67.7494 77.8713 67.7494 76.7909V73.1571C67.7494 72.7777 67.6429 72.7015 67.2229 72.6817V72.4141C67.6139 72.446 68.0112 72.4725 68.5179 72.4725C68.9258 72.4725 69.325 72.446 69.6355 72.4141V72.6817C69.3057 72.6904 69.1881 72.8182 69.1881 73.0906V76.5889C69.1881 78.3882 68.2547 78.96 66.5046 78.96C64.753 78.96 63.8201 78.3882 63.8201 76.7253V73.0906ZM71.6932 73.1224C71.6932 72.8505 71.5785 72.7222 71.2468 72.7135V72.4489H76.1601C76.1702 72.9826 76.1885 73.416 76.2363 73.9415H75.9706C75.8737 73.4068 75.7373 73.2212 75.2118 73.2212H73.1343V75.0735H74.4254C74.8622 75.0735 74.9312 74.9275 74.9905 74.5774H75.2542C75.2205 74.884 75.201 75.1919 75.1958 75.5002C75.1958 75.764 75.2267 76.1906 75.2542 76.4259H74.9905C74.9312 76.0744 74.8622 75.9298 74.4254 75.9298H73.1343V77.9788H75.3188C75.8443 77.9788 76.0102 77.8019 76.1755 76.9862H76.4986C76.4288 77.6003 76.3899 78.2175 76.3819 78.8356H71.2463V78.568C71.578 78.5593 71.6927 78.4316 71.6927 78.1582V73.1224H71.6932ZM46.7678 57.9292C48.907 55.479 52.0528 53.9318 55.5627 53.9318C59.169 53.9318 62.3949 55.5687 64.5375 58.1403L65.1035 57.609C62.8221 54.8961 59.4019 53.1749 55.5786 53.1749C51.8547 53.1749 48.5145 54.8088 46.2341 57.4036L46.7678 57.9292ZM54.5657 51.7406L51.1493 52.4512L50.2887 48.3127L53.6583 47.6131L53.8165 48.37L51.602 48.8314L51.7819 49.6997L53.895 49.2591L54.0527 50.0189L51.9391 50.4572L52.1464 51.4532L54.4075 50.9822L54.5657 51.7406ZM61.0845 49.0701L59.0466 48.6405L58.8537 49.5604L60.8897 49.9929L60.7301 50.7508L58.6946 50.3183L58.3359 52.0193L57.1812 51.7724L58.0524 47.6396L61.2455 48.3127L61.0845 49.0701ZM66.0104 56.1434L64.997 55.1859L65.157 54.2771L63.418 53.0688L62.6485 53.5539L61.4977 52.9097L65.6035 50.4634L66.7259 51.2411L66.0104 56.1434ZM65.6618 51.6244L64.1098 52.6017L65.3426 53.4584L65.6618 51.6244ZM47.234 54.4487C46.4766 55.0494 45.1922 55.5402 44.253 54.4366L42.8963 52.6986L43.8032 51.9821L45.1338 53.6913C45.614 54.2573 46.2181 54.1469 46.6993 53.7694C47.1795 53.3928 47.4264 52.8287 46.9886 52.229L45.656 50.5218L46.5629 49.8082L47.9201 51.5463C48.73 52.6576 48.2281 53.6585 47.234 54.4487Z" fill="white"/>
</svg>
