<svg width="112" height="80" viewBox="0 0 112 80" fill="none" xmlns="http://www.w3.org/2000/svg">
<path d="M55.9719 2.00002C50.6826 2.00734 45.6128 4.03673 41.8773 7.64202C38.1417 11.2473 36.0461 16.1333 36.0512 21.2259C36.061 25.523 37.5673 29.6929 40.329 33.0686C43.0908 36.4443 46.9485 38.8308 51.2852 39.8465C52.0801 36.9278 53.0447 30.7847 52.1645 24.8833C54.8584 30.6665 55.6019 37.1899 55.8014 40.4047C55.871 40.4084 55.9405 40.4117 56.0101 40.4147C56.4034 40.4124 56.7966 40.3989 57.1891 40.3742C57.018 38.4368 56.3102 34.8152 55.5013 31.5083C57.1155 34.616 59.5199 38.0496 61.0834 39.718L61.0791 39.72C61.0842 39.7292 61.0877 39.7391 61.0877 39.753C61.0877 39.7591 61.0843 39.7643 61.0826 39.77C61.532 39.6516 61.9768 39.5182 62.4164 39.3698C52.4862 28.0731 48.7514 12.3044 47.296 5.6444H47.2969C47.2961 5.63899 47.2935 5.63382 47.2935 5.62739C47.2935 5.59239 47.3166 5.56342 47.3498 5.55236C48.1021 5.2493 54.8962 2.52113 56.1717 2.0095C56.105 2.00601 56.0383 2.00285 55.9716 2L55.9719 2.00002ZM56.4736 2.02354C55.556 7.71327 54.274 26.2468 62.4182 39.3693C66.36 38.0799 69.784 35.6355 72.2105 32.3786C74.6371 29.1217 75.9446 25.2156 75.9499 21.2074V21.1704C75.935 16.1647 73.891 11.3624 70.2532 7.78611C66.6154 4.20985 61.6712 2.14222 56.4736 2.02354ZM58.3348 2.32165C58.3495 2.32165 58.3604 2.32723 58.3726 2.33266L58.3734 2.33065L64.1978 5.66143L64.1962 5.66243C64.2172 5.6771 64.2329 5.69916 64.2329 5.72695C64.2329 5.73982 64.2294 5.75071 64.2238 5.75997L64.2254 5.76198C61.8161 10.4783 58.0413 21.0661 59.6086 30.7245C55.2399 15.9985 57.9546 3.65613 58.2552 2.38819H58.2569C58.2646 2.34934 58.2947 2.32167 58.3343 2.32167L58.3348 2.32165ZM65.8063 7.36308C65.8192 7.36308 65.8282 7.36486 65.8365 7.36959L65.8381 7.36758C70.7336 10.5854 73.9677 16.1222 73.9682 22.4178C73.9682 29.2938 70.1068 35.2654 64.4355 38.2959C64.4252 38.3023 64.4132 38.3059 64.3993 38.3059C64.3743 38.3059 64.3531 38.2927 64.3374 38.2734H64.3357L64.114 37.8888H64.1148C64.1114 37.8785 64.108 37.8688 64.108 37.8578C64.108 37.8346 64.118 37.8149 64.1337 37.7992L64.132 37.7977C69.3446 35.03 72.4054 28.7156 72.4054 22.4178C72.4054 16.7619 69.9349 10.8627 65.5764 7.89677L65.5773 7.89332C65.558 7.87762 65.5456 7.85776 65.5456 7.83279C65.5456 7.82069 65.549 7.80933 65.5556 7.79828L65.7386 7.4026C65.7525 7.38046 65.7774 7.36308 65.805 7.36308L65.8063 7.36308ZM45.4869 7.56566C45.5219 7.56566 45.5512 7.58898 45.5613 7.62217C45.5891 7.75419 45.6385 7.96428 45.6624 8.05384L45.6573 8.05534C45.659 8.06075 45.6607 8.06544 45.6607 8.07085C45.6607 8.09298 45.6522 8.11197 45.6376 8.12587V8.12738C41.7293 11.1429 39.4582 16.9255 39.4582 22.2273C39.4582 29.0129 43.3601 35.8063 49.2388 38.3239L49.238 38.3265C49.2702 38.335 49.2953 38.365 49.2953 38.4C49.2953 38.4057 49.2937 38.4109 49.2919 38.4145L49.2953 38.4175C49.2704 38.5245 49.2198 38.7463 49.1948 38.8616L49.1914 38.8587C49.1783 38.8826 49.1531 38.9002 49.1235 38.9002C49.115 38.9002 49.1071 38.8982 49.1004 38.8962C42.5289 36.2098 37.8944 29.7601 37.8944 22.2274C37.8944 16.187 40.8751 10.8447 45.4413 7.58026C45.455 7.57099 45.47 7.56575 45.4875 7.56575L45.4869 7.56566ZM55.8014 45.03C50.2426 45.03 45.2191 47.3039 41.6187 50.9713L42.1702 51.5075C45.6293 47.9843 50.4584 45.7953 55.8014 45.7953C61.1453 45.7953 65.9756 47.9843 69.4347 51.5075L69.9862 50.9713C66.3868 47.3039 61.361 45.03 55.8014 45.03ZM53.9483 47.0177L50.9071 47.6345C50.6968 47.6749 50.5684 47.8392 50.6155 48.0697L51.254 51.1798C51.4708 52.2391 52.2437 52.4802 53.1006 52.3058L54.9528 51.9316L54.7668 51.0283L52.9714 51.3919C52.5065 51.4836 52.301 51.3973 52.1957 50.8807L52.1017 50.4156L54.3359 49.9639L54.1539 49.0725L51.9177 49.5232L51.6929 48.4163L54.1328 47.9226L53.9483 47.0177ZM59.5661 47.4689C58.9749 47.4805 58.4803 47.7881 58.272 48.5733L57.4646 51.6445C57.4038 51.8683 57.5193 52.0381 57.7275 52.0932L58.3223 52.2472L58.8446 50.261L61.0487 50.8372L61.278 49.9564L59.0779 49.3837L59.1981 48.921C59.3317 48.4126 59.54 48.3357 60.0005 48.4558L61.7737 48.9175L62.009 48.0246L60.1825 47.5495C59.971 47.4941 59.7631 47.4651 59.5661 47.4689V47.4689ZM46.6965 49.3436L45.9328 49.9564L47.6528 52.0642C47.9913 52.4752 48.0887 52.7217 48.0545 53.0731C48.0295 53.363 47.8556 53.6518 47.5899 53.8649C47.3263 54.0815 47.0021 54.1933 46.7151 54.1585C46.3602 54.12 46.1398 53.9713 45.8041 53.5603L44.0817 51.4544L43.319 52.0722L45.1998 54.3746C45.5965 54.8545 46.0399 55.1107 46.5658 55.1604C47.1571 55.2144 47.6828 55.0409 48.2048 54.6197C48.7242 54.1974 49.0054 53.7218 49.072 53.1346C49.132 52.6124 48.9709 52.1273 48.5778 51.6445L46.6965 49.3436ZM66.2201 50.3585C66.1299 50.3642 66.0486 50.404 65.9697 50.4541L61.641 53.2501L62.5565 53.7603L65.6766 51.7476L65.1819 53.4402L64.7807 53.1306L63.9531 53.6623L64.9069 54.3926L64.6319 55.3444L65.4438 56.0857L66.8726 51.1448C66.9298 50.9704 66.9456 50.7903 66.7188 50.6141L66.5242 50.4686C66.4093 50.3814 66.3102 50.3529 66.2201 50.3585ZM55.8014 53.1206C52.2981 53.1206 49.1527 54.656 47.0097 57.0861L47.5909 57.5938C49.5918 55.3235 52.5285 53.8891 55.8009 53.8889C59.0775 53.8889 62.0131 55.3232 64.014 57.5938L64.5921 57.0861C62.4505 54.6557 59.3069 53.1206 55.8014 53.1206ZM60.1377 59.5701C57.2496 59.5701 55.3862 61.5096 55.3862 64.675C55.3862 67.8411 57.2496 69.7795 60.1377 69.7795C63.0248 69.7795 64.8893 67.8411 64.8893 64.675C64.8893 61.5096 63.0251 59.57 60.1377 59.5701ZM29 59.7936V69.5634H35.9018V67.5531H31.2443V65.6414H35.4237V63.6316H31.2443V61.8034H35.7892V59.7936H29ZM37.1864 59.7936V65.7254C37.1864 68.4475 39.0799 69.7304 41.3381 69.7304C43.5964 69.7304 45.4904 68.4329 45.4904 65.7254V59.7936H43.2461V65.5994C43.2461 66.9119 42.5724 67.7212 41.3381 67.7212C40.1039 67.7212 39.4307 66.9116 39.4307 65.5994V59.7936H37.1864ZM46.8795 59.7936V69.5634H49.1238V66.0465H50.3304L52.2942 69.5634H54.8191L52.6311 65.6414C53.6272 65.0836 54.3284 64.2034 54.3284 62.9203C54.3284 61.0078 52.7715 59.7936 50.7799 59.7936H46.8795ZM76.5442 59.7936L72.5603 69.5629H75.0998L75.8157 67.7072H79.6587L80.3742 69.5629H82.9131L78.9287 59.7936H76.5442ZM66.1879 59.7942V69.5634H68.4322V66.2696H70.031C71.9669 66.2696 73.5528 65.1537 73.5528 63.0319C73.5528 60.9101 71.9672 59.7942 70.031 59.7942H66.1879ZM60.1377 61.5793C61.5398 61.5793 62.6465 62.5835 62.6465 64.675C62.6467 66.7673 61.5398 67.7712 60.1377 67.7712C58.7356 67.7712 57.6285 66.7676 57.6285 64.675C57.6285 62.5835 58.7356 61.5793 60.1377 61.5793ZM49.1238 61.8039H50.8076C51.7337 61.8039 52.0841 62.2781 52.0841 62.9203C52.0841 63.5619 51.7337 64.0368 50.8076 64.0368H49.1238V61.8039ZM68.4322 61.8039H69.9193C70.9155 61.8039 71.3085 62.3197 71.3085 63.0319C71.3085 63.7431 70.9155 64.2599 69.9193 64.2599H68.4322V61.8039ZM77.7372 62.6963L78.8875 65.6974H76.5869L77.7372 62.6963ZM58.7752 72.4225C57.0493 72.4225 55.5762 73.6568 55.5762 75.6592C55.5762 77.6616 57.0319 78.8955 58.7928 78.8955C60.1589 78.8955 61.0031 78.3594 61.6958 77.5189V75.4266H58.4153V76.5441H60.3564V76.9912C60.0419 77.34 59.5389 77.608 58.918 77.608C57.8312 77.608 57.0131 76.9735 57.0131 75.6592C57.0131 74.3449 57.9033 73.7105 58.7566 73.7105C59.5389 73.7105 60.0416 74.0855 60.2483 74.7829L61.6239 74.3807C61.3 73.2096 60.383 72.4225 58.7752 72.4225ZM68.493 72.5305V78.7839H72.9118V77.4974H69.9304V76.2739H72.6061V74.9875H69.9304V73.8175H72.8399V72.5305H68.493ZM38.7831 72.531V78.7844H43.2014V77.4979H40.22V72.531H38.7831ZM43.8766 72.531V78.7844H48.2953V77.4979H45.3139V76.2745H47.9901V74.9875H45.3139V73.8175H48.2234V72.531H43.8766ZM51.5104 72.5315L48.9599 78.7844H50.5853L51.0439 77.597H53.5038L53.9614 78.7844H55.5868L53.0373 72.5315H51.5104ZM62.3624 72.5315V76.3275C62.3624 78.0702 63.5746 78.8915 65.02 78.8915C66.4654 78.8915 67.6786 78.0613 67.6786 76.3275V72.5315H66.2417V76.2474C66.2417 77.0872 65.8102 77.6059 65.0205 77.6059C64.23 77.6059 63.7988 77.0872 63.7988 76.2474V72.5315L62.3624 72.5315ZM52.2741 74.3893L53.0101 76.31H51.5371L52.2741 74.3893Z" fill="white"/>
</svg>
