<svg width="112" height="80" viewBox="0 0 112 80" fill="none" xmlns="http://www.w3.org/2000/svg">
<path d="M88.8695 53H89.3695V50.6855H89.378L90.2095 53H90.642L91.4735 50.6855H91.482V53H91.982V50.001H91.251L90.4445 52.349H90.436L89.609 50.001H88.8695V53ZM86.102 50.4545H87.051V53H87.576V50.4545H88.5295V50.001H86.102V50.4545ZM80 53L104 29H89.555L65.5555 53H80ZM76.559 39.452H47.5055C38.651 39.452 37.1015 39.9215 33.309 43.714C29.762 47.261 24.0005 53 24.0005 53H36.586L39.5885 49.9975C41.5625 48.0235 42.5805 47.819 46.7255 47.819H68.1925L76.559 39.452ZM32.9215 42.0025C30.302 44.474 24.6025 50.0105 21.5305 53H8C8 53 18.842 42.1895 24.868 36.258C31.0765 30.348 34.1715 29 45.559 29H87.0115L78.036 37.975H46.401C38.3995 37.975 36.6015 38.5295 32.9215 42.0025Z" fill="white"/>
</svg>
