<svg width="112" height="80" viewBox="0 0 112 80" fill="none" xmlns="http://www.w3.org/2000/svg">
<path d="M62.4785 68.4546V64.0945H60.5336L60.5023 68.6115C60.4709 69.5839 59.6553 70.3053 58.6829 70.274C57.7732 70.2426 57.0831 69.5211 57.0204 68.6115V64.0945H55.0756V68.4546C55.0756 70.7445 56.5499 71.9678 58.777 71.9678C60.9728 71.9678 62.4785 70.7759 62.4785 68.4546ZM70.3832 70.2426H66.5249V68.6742H69.5676V67.1372H66.5249V65.7256H70.2891V64.0945H64.5801V71.8737H70.3832V70.2426ZM50.2763 65.757C51.0605 65.7256 51.876 65.9138 52.5975 66.2275L53.068 64.5336C52.1583 64.1258 51.1859 63.9376 50.2135 64.0004C47.5786 64.0004 45.7593 65.757 45.7593 67.9841C45.7593 70.2112 47.5472 71.9992 50.1508 71.9992C51.9074 71.9992 52.8798 71.3719 53.2562 71.0268V67.8586L51.4682 68.0782V70.0544C51.0918 70.2112 50.684 70.3053 50.2449 70.3053C48.8647 70.3053 47.7668 69.3329 47.7668 67.9527C47.7668 66.5725 48.802 65.757 50.2763 65.757ZM78.4762 71.8737V64.0945H77.3783L74.5238 65.6629L74.9002 67.294L76.6255 66.3843V71.8424H78.4762V71.8737ZM35 64.0945V71.8737H40.6463V70.2426H36.9448V64.0945H35ZM42.0578 64.0945H44.0026V71.8737H42.0578V64.0945Z" fill="white"/>
<path d="M71.2766 33.2909C68.9868 37.8707 66.3205 42.1995 63.3091 46.3087C59.0431 46.6224 54.8084 46.6538 50.5423 46.4028L45.2411 54.9036C53.3654 55.6878 60.737 55.876 68.2967 54.684C73.7233 48.0339 77.8953 41.1643 81.6281 33.3223C78.7422 26.5468 74.7899 20.3673 70.3983 14.5956L65.1285 23.0336C67.4184 26.2959 69.4887 29.715 71.2766 33.2909ZM47.4682 40.3801C45.1784 37.1179 43.1395 33.6987 41.2887 30.1541C43.5472 25.5744 46.2449 21.2456 49.2876 17.1364C53.5537 16.8227 57.7884 16.7913 62.0544 17.0423L67.387 8.54151C59.7332 7.75731 51.9853 7.82004 44.3314 8.76109C38.9989 15.2857 34.5132 22.4689 31 30.1541C33.9486 36.8983 37.65 42.7955 42.2298 48.8495L47.4682 40.3801Z" fill="white"/>
<path d="M56.8696 38.5925C60.6652 38.5925 63.7392 35.5184 63.7392 31.7229C63.7079 27.9273 60.6652 24.8533 56.8696 24.8533C53.0741 24.8533 50 27.9273 50 31.7229C50 35.5184 53.0741 38.5925 56.8696 38.5925Z" fill="white"/>
</svg>
