<svg width="112" height="80" viewBox="0 0 112 80" fill="none" xmlns="http://www.w3.org/2000/svg">
<path d="M33.0003 58.2805C33.9138 58.2825 34.8266 58.2758 35.7402 58.2838C35.7355 60.9754 35.7368 63.667 35.7388 66.3586C36.8388 66.3579 37.938 66.3593 39.0379 66.3579V68.7588C37.0265 68.7601 35.015 68.7561 33.0036 68.7608C32.9962 65.2674 33.0029 61.7739 33.0003 58.2805Z" fill="white"/>
<path d="M49.9356 58.2786C50.8478 58.2825 51.7593 58.2799 52.6708 58.2799C52.6715 60.9728 52.6708 63.6657 52.6715 66.3579C53.7721 66.3613 54.8726 66.3533 55.9733 66.3619C55.9686 67.1611 55.9719 67.9596 55.9719 68.7582C53.9592 68.7589 51.9464 68.7595 49.9336 68.7582C49.9362 65.2648 49.9316 61.772 49.9356 58.2786Z" fill="white"/>
<path d="M42.7653 60.2656C43.4274 60.1385 44.1353 60.157 44.7661 60.4119C45.2053 60.5887 45.5762 60.8913 45.9344 61.1939C45.9397 60.9119 45.9351 60.6298 45.9404 60.3477C46.7796 60.3524 47.6195 60.3484 48.4587 60.3497C48.456 63.1486 48.464 65.9481 48.4553 68.7476C47.6002 68.7748 46.7431 68.7516 45.8873 68.7582C45.8873 68.4973 45.8886 68.2364 45.8866 67.9762C45.2132 68.5893 44.3196 68.9714 43.4014 68.9595C42.3327 68.9787 41.2361 68.5715 40.5242 67.759C39.7805 66.9254 39.4747 65.7852 39.4681 64.688C39.4455 63.7266 39.7255 62.7579 40.2708 61.9634C40.8461 61.1105 41.7476 60.4649 42.7653 60.2656ZM43.5647 62.6056C42.9716 62.7241 42.4581 63.1525 42.2253 63.708C41.8445 64.6211 42.1079 65.8348 42.9676 66.3851C43.7591 66.8843 44.8895 66.6837 45.5019 65.9898C46.2522 65.1747 46.1639 63.7511 45.3267 63.0287C44.855 62.6102 44.1744 62.4665 43.5647 62.6056Z" fill="white"/>
<path d="M62.2049 60.9336C62.9705 60.3006 64.0167 60.0795 64.9873 60.2357C65.7137 60.333 66.3473 60.7535 66.8475 61.27C66.8528 60.9634 66.8501 60.6568 66.8501 60.3503C67.6634 60.3496 68.4761 60.3469 69.2895 60.3516C69.2875 62.8564 69.2895 65.3607 69.2888 67.8655C69.2762 68.8091 68.9525 69.7691 68.2871 70.4538C67.5169 71.2609 66.395 71.6443 65.2984 71.6966C64.1713 71.7516 62.9851 71.5106 62.0722 70.8186C61.4121 70.3313 60.9604 69.5725 60.8589 68.758C61.8049 68.7633 62.7522 68.7501 63.6983 68.764C63.8668 68.958 64.0121 69.1891 64.2522 69.3043C64.5952 69.4731 64.9952 69.4586 65.3674 69.4261C65.8457 69.3725 66.3579 69.1619 66.5967 68.719C66.8043 68.3541 66.7141 67.9224 66.738 67.5238C66.04 68.1045 65.153 68.5137 64.2303 68.4786C63.3433 68.4667 62.4649 68.0973 61.8519 67.455C61.0187 66.6107 60.6585 65.3911 60.6983 64.2251C60.7322 62.9909 61.2251 61.7222 62.2049 60.9336ZM64.5958 62.4082C63.9583 62.5068 63.4568 63.0299 63.2856 63.6358C63.0733 64.3662 63.1582 65.2421 63.6936 65.8169C64.3497 66.5426 65.6029 66.4803 66.2723 65.805C67.0252 65.0839 67.0478 63.7855 66.4023 62.9903C65.9725 62.4678 65.2407 62.3075 64.5958 62.4082Z" fill="white"/>
<path d="M72.2309 60.8788C73.0827 60.2783 74.1873 60.0505 75.2083 60.2703C75.8279 60.4027 76.356 60.7775 76.8223 61.19C76.8183 60.9106 76.819 60.6305 76.819 60.3511C77.6648 60.3511 78.5113 60.3445 79.3572 60.3544V68.7563C78.5001 68.7616 77.6423 68.7589 76.7851 68.7576C76.7865 68.4961 76.7865 68.2345 76.7845 67.9737C76.4999 68.2153 76.1987 68.4438 75.8577 68.602C74.9648 69.047 73.9007 69.0536 72.9606 68.7589C72.1114 68.4895 71.3824 67.8829 70.9531 67.1049C70.4429 66.1958 70.301 65.1218 70.3865 64.0948C70.514 62.8302 71.1801 61.6112 72.2309 60.8788ZM74.4234 62.615C73.7308 62.7626 73.1676 63.3433 73.0137 64.0293C72.818 64.8682 73.0873 65.8621 73.8237 66.3613C74.6596 66.9182 75.8988 66.6699 76.4946 65.8733C77.1235 65.0589 77.0227 63.7757 76.2704 63.0718C75.7861 62.617 75.0636 62.4541 74.4234 62.615Z" fill="white"/>
<path d="M57.9648 56.733C58.7151 56.5165 59.5868 56.9561 59.8303 57.703C60.0353 58.2837 59.8542 58.981 59.3838 59.3815C58.934 59.7848 58.2401 59.89 57.6941 59.6292C57.0911 59.3537 56.7414 58.6552 56.8496 58.0076C56.9232 57.411 57.3809 56.8846 57.9648 56.733ZM57.0811 60.3516C57.9276 60.3463 58.7735 60.3516 59.6199 60.3489C59.6213 63.1524 59.6213 65.9559 59.6199 68.7593C58.7734 68.7573 57.9276 68.762 57.0811 68.7567C57.0844 65.9552 57.0838 63.1531 57.0811 60.3516Z" fill="white"/>
<path d="M53.8871 9H54.4038C54.9036 11.5244 55.3468 14.0597 55.8346 16.5865C55.9261 16.9977 55.9791 17.4172 55.9852 17.8391C53.162 18.2959 50.5677 20.0246 49.1333 22.5045C49.043 22.7582 48.7599 22.8411 48.5443 22.674C46.1945 21.3264 43.8592 19.9524 41.5105 18.6013C41.3684 18.4883 41.0901 18.3921 41.1949 18.1625C41.3202 17.8007 41.5611 17.4941 41.7634 17.1732C43.2087 14.9445 45.1491 13.0415 47.3917 11.617C49.3669 10.3415 51.5975 9.50728 53.8871 9Z" fill="white"/>
<path d="M57.5983 11.1408C62.2221 10.7008 66.9879 12.0508 70.6783 14.8674C71.0324 15.1535 71.4287 15.4012 71.7213 15.7534C71.8767 15.9421 71.6599 16.1284 71.5539 16.2726C69.9328 18.1359 68.3164 20.0028 66.6989 21.8673C66.4905 22.0969 66.3123 22.3578 66.069 22.5513C65.833 22.6798 65.6608 22.4514 65.4873 22.3289C63.6614 20.7938 61.2357 20.0053 58.8558 20.1291C58.4523 20.1423 58.0561 20.2372 57.6525 20.2276C57.5248 20.099 57.4839 19.9235 57.4586 19.7516C57.1129 17.3654 56.754 14.9817 56.4023 12.5966C56.3493 12.2023 56.253 11.8081 56.2746 11.4089C56.6601 11.1529 57.1587 11.2166 57.5983 11.1408Z" fill="white"/>
<path d="M54.9522 23.4012C56.8648 23.1163 58.8834 23.6813 60.3841 24.8967C61.8138 26.0387 62.7773 27.7553 62.9748 29.5752C63.1687 31.1464 62.8122 32.7813 61.9727 34.1252C61.0356 35.6507 59.4976 36.7963 57.7632 37.2506C56.2156 37.657 54.5257 37.5367 53.0624 36.8816C51.4714 36.1796 50.1586 34.8753 49.454 33.2872C48.641 31.4709 48.6446 29.307 49.4708 27.4943C50.4368 25.3137 52.5807 23.7077 54.9522 23.4012ZM50.6705 26.6385C50.9126 26.523 51.151 26.4029 51.3943 26.2898C51.0883 26.987 50.8981 27.7444 50.9619 28.5101C51.5942 28.8142 52.2602 29.0546 52.8637 29.4177C52.1771 29.325 51.5039 29.1532 50.8246 29.0198C50.3031 29.604 49.9863 30.3373 49.8286 31.0995C49.7033 30.8723 49.5865 30.6414 49.4588 30.4167C49.46 31.7823 49.9201 33.1359 50.7294 34.2358C50.6776 33.9845 50.6307 33.732 50.5897 33.4796C51.1895 33.9449 51.8315 34.3908 52.5902 34.5519C53.0756 34.0385 53.5116 33.4712 54.0524 33.0131C53.7416 33.6455 53.3646 34.2429 53.0274 34.8619C53.4297 35.5111 54.0102 36.028 54.6654 36.4139C54.4161 36.4752 54.1681 36.5414 53.9139 36.5834C54.5908 36.7324 55.2749 36.8731 55.9711 36.8851C56.6323 36.8562 57.2875 36.7481 57.9258 36.5749C57.6802 36.5232 57.4332 36.4775 57.1875 36.4283C57.8295 36.04 58.4293 35.5532 58.817 34.9017C58.587 34.2381 58.0908 33.6887 57.8547 33.0216C58.3677 33.5025 58.8073 34.0566 59.3048 34.5555C60.0456 34.3644 60.7068 33.9593 61.2776 33.4579C61.2451 33.72 61.209 33.982 61.1693 34.2441C61.9377 33.1117 62.4207 31.7785 62.4135 30.4009C62.2978 30.6378 62.1738 30.8697 62.0461 31.1005C61.8871 30.3432 61.5692 29.6147 61.056 29.0269C60.3815 29.1555 59.7095 29.307 59.0326 29.4272C59.6047 29.0173 60.3117 28.8549 60.9067 28.4871C60.9946 27.7309 60.7742 26.9833 60.4804 26.2944C60.7116 26.4038 60.9417 26.5156 61.1705 26.631C60.3781 25.5058 59.2001 24.6763 57.8945 24.2508C58.0956 24.4444 58.2968 24.6378 58.4943 24.8362C57.7186 24.7364 56.9261 24.8242 56.2011 25.1175C56.1059 25.8014 56.0927 26.5023 55.9204 27.1731C55.8228 26.4915 55.7554 25.8051 55.6771 25.1199C54.9557 24.8338 54.1668 24.728 53.3972 24.8398C53.5766 24.6438 53.7621 24.4527 53.944 24.2579C52.6361 24.6875 51.4943 25.5421 50.6705 26.6385Z" fill="white"/>
<path d="M53.0527 29.4623C54.0163 28.7675 54.9726 28.0582 55.9433 27.3718C56.8984 28.0811 57.8752 28.7614 58.8279 29.4744C58.4546 30.6079 58.0848 31.7416 57.7187 32.8764C56.5323 32.8788 55.3472 32.874 54.1608 32.8788C53.7826 31.7427 53.4057 30.6067 53.0527 29.4623Z" fill="white"/>
<path d="M38.0714 18.4174C38.2159 18.3273 38.3641 18.4643 38.4953 18.5148C40.8933 19.8047 43.2949 21.0862 45.6941 22.3724C45.9362 22.4662 46.0326 22.7426 45.8604 22.9494C44.5368 25.3861 44.3717 28.3974 45.3931 30.9724C45.5352 31.1912 45.322 31.3931 45.1172 31.4568C42.83 32.3404 40.5404 33.2167 38.2521 34.099C37.8955 34.23 37.5499 34.3996 37.1778 34.4849C37.0633 34.4345 36.9814 34.3539 36.9321 34.2421C34.9545 29.2522 35.3086 23.4159 37.8402 18.6856C37.8895 18.5677 37.9666 18.4787 38.0714 18.4174Z" fill="white"/>
<path d="M71.0749 18.92C71.3615 18.7481 71.6048 19.1123 71.7975 19.2806C75.577 22.9868 77.6522 28.3494 77.321 33.6278C77.28 33.682 77.1981 33.7877 77.1572 33.8406C74.4303 33.7529 71.7036 33.5761 68.9767 33.4667C68.7503 33.4367 68.4492 33.4872 68.2939 33.2792C68.2553 32.8825 68.2915 32.4846 68.2722 32.0879C68.153 29.6368 67.0437 27.2494 65.2431 25.5784C65.0119 25.4125 65.1311 25.1096 65.3105 24.9594C67.2401 22.9543 69.1298 20.9083 71.0749 18.92Z" fill="white"/>
<path d="M42.9373 33.4737C43.1299 33.41 43.3504 33.2645 43.5491 33.386C43.6443 33.5098 43.708 33.6541 43.7779 33.7948C44.7607 35.9622 46.6047 37.7208 48.8015 38.6357C49.1652 38.798 49.5615 38.8785 49.9132 39.0673C49.9831 39.262 49.918 39.4664 49.8638 39.6563C49.0303 42.3009 48.2101 44.9491 47.3815 47.595C47.2333 47.6251 47.0876 47.6239 46.9419 47.5914C41.8846 46.0502 37.5896 42.2335 35.4458 37.4118C35.3627 37.205 35.3759 36.9766 35.3555 36.7591C37.8764 35.6507 40.4141 34.5784 42.9373 33.4737Z" fill="white"/>
<path d="M65.6264 34.4931C65.8384 34.3693 66.0865 34.4222 66.3165 34.4318C68.9843 34.653 71.6557 34.8416 74.3224 35.0641C74.5331 35.0473 74.6536 35.2625 74.6162 35.4511C74.2452 40.7668 71.4341 45.8434 67.1476 49.0122C66.997 49.1107 66.832 49.1793 66.6718 49.2562C65.0362 47.0888 63.4572 44.8794 61.8337 42.7023C61.6879 42.4967 61.517 42.2972 61.4531 42.0495C61.4928 41.8944 61.6447 41.8151 61.7543 41.7153C63.6946 40.2801 65.0327 38.0753 65.4506 35.706C65.5276 35.3045 65.5361 34.8922 65.6264 34.4931Z" fill="white"/>
<path d="M58.6028 40.5974C58.775 40.4363 59.0171 40.4928 59.1304 40.6911C60.5769 42.82 62.0041 44.9635 63.447 47.0959C63.6035 47.328 63.7698 47.5575 63.8866 47.816C63.7722 48.1249 63.4433 48.2523 63.1916 48.4266C60.7238 49.9737 57.8922 50.9366 54.9907 51.207C53.7935 51.1879 52.5927 51.1734 51.3967 51.2251C50.3573 51.088 49.3166 50.9282 48.3049 50.6469C48.1351 50.6156 48.0171 50.487 47.8906 50.3837C48.6711 47.6452 49.407 44.8936 50.179 42.1528C50.2115 41.9207 50.4549 41.7886 50.6644 41.8967C53.3347 42.6541 56.306 42.1408 58.6028 40.5974Z" fill="white"/>
</svg>
