<svg width="112" height="80" viewBox="0 0 112 80" fill="none" xmlns="http://www.w3.org/2000/svg">
<path fill-rule="evenodd" clip-rule="evenodd" d="M68.987 0H48.0205C46.1602 0.00537426 44.3776 0.742842 43.0622 2.05131C41.7468 3.35977 41.0054 5.13289 41 6.98333V73.0167C41.0054 74.8671 41.7468 76.6402 43.0622 77.9487C44.3776 79.2572 46.1602 79.9946 48.0205 80H68.987C70.846 79.9927 72.6266 79.2543 73.9404 77.9461C75.2542 76.6378 75.9946 74.8658 76 73.0167V6.98333C75.9946 5.13417 75.2542 3.36217 73.9404 2.05391C72.6266 0.745656 70.846 0.00732632 68.987 0ZM67.6412 73.9262C67.4351 75.707 67.2602 77.2187 68 78.9519L47.815 79C47.0511 79.0012 46.2943 78.8552 45.5883 78.5704C44.8822 78.2857 44.2406 77.8677 43.7004 77.3404C43.1602 76.8131 42.7319 76.187 42.4401 75.4978C42.1483 74.8087 41.9988 74.0701 42 73.3245V6.67552C41.9988 5.92986 42.1483 5.19129 42.4401 4.50216C42.7319 3.81302 43.1602 3.18688 43.7004 2.65961C44.2406 2.13235 44.8822 1.71434 45.5883 1.42955C46.2943 1.14476 47.0511 0.99879 47.815 1.00001L58.9676 1.09062C57.6697 1.61028 57.0445 3.62417 57.0445 5.12396C56.1823 5.87293 56.0857 8.03106 56.855 8.45271C56.774 8.78363 56.7358 9.09886 56.699 9.40185C56.6264 9.99964 56.5596 10.5498 56.1823 11.0787C55.9875 11.3827 55.4722 11.5351 54.9813 11.6803C54.866 11.7144 54.752 11.7481 54.6438 11.7833C53.8531 11.9485 53.0957 11.9515 52.3518 11.9544H52.3517C51.83 11.9564 51.3148 11.9584 50.7993 12.0163C49.4852 12.5776 48.7706 13.3677 47.7808 14.4623C47.6846 14.5687 47.5857 14.678 47.4835 14.7903C47.2393 15.3233 46.9951 15.8605 46.7496 16.4005C46.1741 17.6667 45.5913 18.9488 44.9843 20.2309C44.686 20.9594 44.336 21.6711 43.9838 22.3873L43.9837 22.3874L43.9837 22.3875L43.9837 22.3875C43.3157 23.7458 42.6398 25.1201 42.2937 26.6554C42.3006 26.8272 42.3025 27.002 42.3043 27.1777V27.178C42.3149 28.2012 42.3258 29.2525 43.351 29.8917C43.8409 30.1614 44.2916 30.1641 44.7403 30.1668C44.9962 30.1683 45.2514 30.1698 45.5129 30.2209C44.6963 32.379 44.0236 34.3004 43.927 36.4123C43.7739 37.9828 44.8591 40.1205 45.9484 42.2662C46.5177 43.3876 47.0881 44.5111 47.4835 45.5572C48.1329 45.5572 48.7381 45.602 49.3418 45.6467L49.4067 45.6515C51.2275 49.498 53.8802 52.9229 57.4803 56.2517C58.8187 57.839 60.5799 59.2188 62.3573 60.6113L62.3573 60.6113C63.2595 61.3182 64.1659 62.0283 65.0233 62.7705C65.3606 64.9286 65.8419 66.7576 67.1871 68.7752L67.2593 69.2003C67.4277 70.194 67.6017 71.2209 67.8105 72.2463C67.767 72.839 67.7027 73.3946 67.6412 73.9262ZM48.2471 65.0692H45.7005V65.071V74.8723H47.9155V69.01L49.833 74.8705H52.4288V65.0692H50.121V70.9315L48.2471 65.0692ZM55.792 65.0692H52.8115V65.071V74.8723H56.1767C59.6626 74.8723 59.3992 69.5907 57.2731 69.7554C58.6938 69.5834 59.6485 65.0692 55.792 65.0692ZM57.2339 69.759C57.247 69.7582 57.2601 69.757 57.2731 69.7554C57.2601 69.7564 57.2471 69.7576 57.2339 69.759ZM55.1156 68.8677V66.6633L55.684 66.6651C56.6447 66.6651 56.6447 68.8677 55.684 68.8677H55.1156ZM55.1156 73.2875V70.5579L55.684 70.5672C56.6447 70.5672 56.7887 73.2875 55.684 73.2875H55.1156ZM63.6686 65.0692H60.5934L60.5971 65.071L58.6758 74.8723H60.9894L61.2717 73.134H62.9069L63.0963 74.8705H65.4477L63.6686 65.0692ZM62.7079 71.4012H61.5142L62.0826 66.5227L62.7079 71.4012ZM70.1666 72.8974C71.617 75.6232 70.8432 78.203 70.4087 79C71.7058 78.7163 72.8658 78.0148 73.6995 77.0097C74.5332 76.0047 74.9916 74.7553 75 73.4651V43.5418C74.0337 45.6537 71.8591 47.2016 69.3452 47.2016C68.5356 47.1989 67.7346 47.0414 66.9878 46.7381C66.241 46.4348 65.5631 45.9917 64.993 45.434C64.4228 44.8763 63.9715 44.2151 63.665 43.488C63.3584 42.761 63.2026 41.9825 63.2063 41.1969C63.2063 38.619 64.8988 36.4128 67.3631 35.4753C67.1085 34.2414 66.4355 33.0267 65.7297 31.7527C65.3628 31.0906 64.9872 30.4125 64.6567 29.7074C64.5415 29.1605 64.4331 28.5773 64.3215 27.9772L64.3214 27.977C64.0118 26.3125 63.6778 24.5169 63.1091 23C61.6111 23.6565 60.8373 24.6403 60.1607 25.5317C60.0306 26.3877 59.7204 27.4151 59.4153 28.4256C59.2688 28.9105 59.1236 29.3916 59 29.8479C60.5476 31.1128 61.6111 35.2885 62.3353 38.1493C62.1832 38.3441 62.0043 38.5177 61.8036 38.6653C62.5255 40.8259 62.9137 43.1842 63.3003 45.5325C63.4831 46.6433 63.6656 47.7519 63.8829 48.8363C64.1084 49.2586 64.3668 49.6704 64.6251 50.0821C65.1419 50.9057 65.6586 51.7292 65.9127 52.6366C66.702 54.5493 67.1555 56.6365 67.6082 58.7202L67.6082 58.7203C67.8213 59.7008 68.0341 60.6804 68.2817 61.6408C68.446 61.9433 68.6547 62.2079 68.8624 62.4714C69.2668 62.9842 69.6679 63.4929 69.7321 64.2686C69.7676 65.4688 69.502 66.6593 68.9583 67.7379C69.1928 69.3509 69.5855 70.2599 69.8788 70.9389C70.1911 71.6618 70.3907 72.124 70.1666 72.8974ZM62.8792 1.23637C64.4655 2.74572 65.4434 4.91763 63.9527 7.56412C64.5783 7.97638 64.0484 8.6008 63.5196 9.22404L63.5196 9.22406C63.2606 9.52929 63.0019 9.83423 62.8792 10.1138C62.6292 10.8243 62.0549 11.3712 61.6066 11.7983C61.2211 12.1654 60.9286 12.444 61.0153 12.6617C63.0667 13.9365 64.6916 15.2114 66.7485 16.8622C67.5729 17.9141 68.0114 21.3875 68.4452 24.8241C68.5763 25.8625 68.7069 26.8975 68.8477 27.8613C69.14 28.7208 69.4726 29.5372 69.804 30.3504C70.4772 32.0023 71.145 33.6411 71.4579 35.6016C72.2424 35.9001 72.96 36.3545 73.5683 36.9382C74.1767 37.5218 74.6634 38.2229 75 39V6.71173C75.0017 5.96133 74.857 5.21798 74.5742 4.52435C74.2914 3.83072 73.8761 3.20047 73.3521 2.66977C72.8281 2.13907 72.2058 1.71837 71.5208 1.43183C70.8358 1.14529 70.1017 0.998539 69.3605 1.00001L62.8792 1.23637Z" fill="white"/>
</svg>
