<svg width="112" height="80" viewBox="0 0 112 80" fill="none" xmlns="http://www.w3.org/2000/svg">
<path fill-rule="evenodd" clip-rule="evenodd" d="M56 4C56.6926 5.378 57.5583 6.66329 58.5767 7.8251C64.9163 15.0234 75.6271 15.9703 83 10.1877V58.0745C82.8942 63.6472 78.574 65.5335 74.5825 67.0016L71.458 67.8698C66.7694 68.4623 62.2149 69.6042 56.0264 76.0019L56 75.9644C55.9906 75.9764 55.9817 75.9889 55.9736 76.0019C49.7851 69.6042 45.2306 68.4623 40.5401 67.8698L37.4175 67.0016C33.426 65.5316 29.1039 63.6453 29 58.0727V10.1877C36.3672 15.9703 47.0837 15.0234 53.4215 7.8251C54.4397 6.66285 55.3061 5.37766 56 4ZM62.2068 13.2632C60.491 13.1209 53.7773 12.9486 50.335 18.4773C46.9657 23.8786 48.5287 28.8572 49.0391 30.1592C49.48 28.95 50.8659 25.3561 52.8866 22.0804L51.4805 21.3666C51.5617 21.1923 51.6543 21.0197 51.76 20.8491L55.285 22.6379C55.1792 22.8029 55.0753 22.9698 54.9752 23.1404L53.6261 22.4557C51.5293 25.6579 49.8475 29.4514 49.3899 30.5178C50.7127 30.6786 57.9373 31.2452 61.9507 25.1075C65.2259 20.0922 63.1864 14.6355 62.7071 13.5141C61.5955 14.3163 60.519 15.1654 59.4805 16.059L60.9221 16.7898C60.7615 16.921 60.5972 17.0579 60.431 17.1985L56.8418 15.376C56.901 15.3357 56.959 15.2955 57.0166 15.2556C57.1413 15.1694 57.2642 15.0843 57.3934 15.001L58.5679 15.5964C60.1612 14.3126 61.486 13.6005 62.2068 13.2632ZM57.4207 20.0259L53.7012 18.1378C53.8391 17.9859 53.9789 17.8359 54.1243 17.6877L57.8495 19.5834C57.7059 19.7297 57.5624 19.8759 57.4207 20.0259ZM56.0704 21.5599L52.4473 19.7205C52.5719 19.5367 52.7023 19.3567 52.8345 19.188L56.5011 21.0424C56.3557 21.213 56.2102 21.3855 56.0704 21.5599ZM55.1406 16.7259L58.8526 18.601L59.3607 18.1341L55.6733 16.259C55.6042 16.3204 55.5347 16.38 55.4653 16.4396L55.4653 16.4397L55.4652 16.4397L55.4651 16.4398L55.465 16.4398L55.465 16.4399L55.4649 16.44L55.4649 16.44C55.3562 16.5333 55.2477 16.6265 55.1406 16.7259ZM34.8165 16.1035L35.7157 18.6405H38.5512L36.29 20.4293L37.1495 23.1649L34.8165 21.3949L32.4855 23.0581L33.3828 20.4105L31.1934 18.6405H33.9211L34.8165 16.1035ZM44.7606 18.6405L43.8633 16.1035L42.9679 18.6405H40.2383L42.4277 20.4105L41.5304 23.0581L43.8633 21.3949L46.1963 23.1649L45.3349 20.4293L47.5961 18.6405H44.7606ZM68.0274 16.1035L68.9247 18.6405H71.762L69.5009 20.4293L70.3604 23.1649L68.0274 21.3949L65.6963 23.0581L66.5936 20.4105L64.4023 18.6405H67.132L68.0274 16.1035ZM77.0743 16.1035L77.9716 18.6405H80.807L78.5458 20.4293L79.4072 23.1649L77.0743 21.3949L74.7413 23.0581L75.6367 20.4105L73.4492 18.6405H76.177L77.0743 16.1035ZM77.0743 24.3987L77.9716 26.9375H80.807L78.5458 28.7244L79.4072 31.4601L77.0743 29.6901L74.7413 31.3532L75.6367 28.7075L73.4492 26.9375H76.177L77.0743 24.3987ZM68.9989 26.9375L68.0997 24.3987L67.2043 26.9375H64.4746L66.664 28.7075L65.7686 31.3532L68.0997 29.6901L70.4345 31.4601L69.5712 28.7244L71.8324 26.9375H68.9989ZM43.8633 24.3987L44.7606 26.9375H47.5961L45.3349 28.7244L46.1963 31.4601L43.8633 29.6901L41.5304 31.3532L42.4277 28.7075L40.2383 26.9375H42.9679L43.8633 24.3987ZM35.788 26.9375L34.8907 24.3987L33.9934 26.9375H31.2656L33.4531 28.7075L32.5577 31.3532L34.8907 29.6901L37.2236 31.4601L36.3604 28.7244L38.6215 26.9375H35.788ZM31.6738 56.314V33.3127H80.326V56.3196C80.2334 61.4366 76.3307 63.1691 72.7415 64.5173L69.9287 65.3142C65.7029 65.8598 61.5999 66.908 56.0254 72.7844L56.0008 72.7506L55.9763 72.7844C50.4017 66.908 46.2987 65.8598 42.073 65.3142L39.2583 64.5117C35.6635 63.1635 31.7683 61.431 31.6738 56.314Z" fill="white"/>
<path fill-rule="evenodd" clip-rule="evenodd" d="M48.8349 36.3576H43.2849V40.0009H44.5374V48.9017L40.0452 36.1514V36.1401H34.5198V39.7834H35.7439V55.8169C34.7559 55.7663 33.8945 55.7644 33.8945 55.7644L34.1949 59.4714C34.1949 59.4714 36.2483 59.5539 37.7274 59.9251C38.9194 60.2251 41.8946 61.4908 41.8946 61.4908L41.564 57.3882C41.0793 57.1117 40.5741 56.8723 40.0528 56.6719V49.0855L44.6979 62.2914L48.8349 63.5608V40.0009H50.0326V36.3576H48.8349ZM57.4391 36.3577H51.6001V40.0009H53.1396V61.0764C52.1951 60.9696 51.3828 60.9114 51.3828 60.9114V64.2078C52.5588 64.3353 53.7233 64.5515 54.8662 64.8547C56.0317 65.2053 58.8955 66.5309 58.8955 66.5309V62.8765C58.4287 62.5923 57.9419 62.3417 57.4391 62.1265V50.3512H59.6889L60.2292 51.8512H62.6452V45.101H60.2292L59.6511 46.7098H57.4391V40.0009H60.2726L61.1982 42.1403H64.1111V36.3577H57.4391ZM74.4456 56.6194V51.4387H77.8421V59.477C77.8421 59.477 74.4456 59.7752 71.2872 61.0352C69.6418 61.6933 66.2585 63.5984 64.8984 64.3765V60.212C65.3953 59.8989 66.0186 59.5333 66.7497 59.1583V40.0009L65.4973 39.4384V36.3577H72.2978V39.4384L71.0454 40.0009V57.4501C72.0787 57.1613 73.3122 56.8707 74.4456 56.6194Z" fill="white"/>
</svg>
