<svg width="112" height="80" viewBox="0 0 112 80" fill="none" xmlns="http://www.w3.org/2000/svg">
<path fill-rule="evenodd" clip-rule="evenodd" d="M54.487 16.0151C54.5291 16.009 54.569 16.0042 54.6077 16.0017V16.0018C54.6416 15.9994 54.6744 15.9994 54.7073 16.0018C54.9375 16.0148 55.1623 16.1345 55.6411 16.5247C55.9778 16.816 57.1803 17.8355 57.9258 18.4666C58.7195 18.2481 63.1446 17.0591 68.3875 16.5494C73.5822 16.0639 79.5709 16.3066 83.8277 17.5203C94.4337 20.5787 91.5476 29.5353 91.5476 29.5353C91.5476 29.5353 91.8602 21.1124 80.5087 19.1706C69.7343 17.3262 59.5456 19.4526 58.4926 19.6724C58.4785 19.6754 58.466 19.678 58.4552 19.6802C58.3241 20.3252 58.1147 21.3085 57.9642 22.0155C57.8938 22.346 57.8362 22.6162 57.8056 22.7631C57.6372 23.5399 57.4929 23.7097 57.2043 23.8796C57.0841 23.9524 53.8137 25.7241 53.2606 25.9911C52.6834 26.2824 52.2984 26.1613 51.9857 25.7972C51.649 25.4331 48.9073 22.4234 48.8832 22.3748C48.8832 22.3748 49.196 18.2727 49.22 17.763C49.2441 17.2776 49.4844 16.9377 50.1096 16.8163C50.7109 16.6707 54.3427 16.0394 54.487 16.0151ZM91.0187 36.7683C93.8806 31.7438 93.4716 24.2436 93.4716 24.2436C93.4716 24.2436 96.9586 30.87 93.6398 36.8896C90.3209 42.885 80.6773 46.9629 80.6773 46.9629C80.6773 46.9629 88.1808 41.7927 91.0187 36.7683ZM17.3061 49.0502C18.8213 42.7878 25.2905 37.084 25.2905 37.084C25.2905 37.084 21.4665 43.5164 20.3603 50.1671C19.0856 57.7888 27.2144 60.119 27.2144 60.119C27.2144 60.119 14.9252 58.8322 17.3061 49.0502ZM47.1758 61.6237C62.76 58.7595 67.2094 56.672 67.2094 56.672C67.2094 56.672 56.4829 64.4396 39.2633 64.8522C24.2322 65.192 19.3743 58.6868 19.3743 58.6868C19.3743 58.6868 31.6156 64.4879 47.1758 61.6237ZM57.1086 20.9186C57.3731 20.5788 58.5272 19.0493 58.5032 19.0735L48.9316 22.3992C48.9316 22.3992 50.9275 23.2729 51.168 23.3943C51.4085 23.4913 51.7454 23.4914 52.3226 23.2487C52.8757 23.006 56.2185 21.5982 56.3387 21.5496C56.6514 21.404 56.7959 21.307 57.1086 20.9186Z" fill="white"/>
<path d="M82.1699 30.0935C74.3777 30.0935 69.1351 35.2396 69.1351 42.8855C69.1351 50.3858 73.9449 55.0461 81.6649 55.0461C84.3825 55.0461 86.691 54.512 87.7492 54.0022L87.9897 53.8809L87.1001 49.0263L86.7154 49.1965C85.6572 49.6577 83.9735 49.9488 82.4343 49.9488C77.9851 49.9488 75.3396 47.2057 75.3396 42.6182C75.3396 37.9335 77.9853 35.1424 82.3864 35.1424C84.3344 35.1424 85.8012 35.6036 86.667 35.992L87.0277 36.1375L88.3026 31.3071L88.0621 31.1858C87.1001 30.6761 84.9837 30.0935 82.1699 30.0935V30.0935ZM33.5414 30.312C30.7035 30.312 28.2984 30.4819 26.3744 30.7975L26.0859 30.8459V54.6579H31.9781V46.2837C32.387 46.3323 32.8198 46.3805 33.4451 46.3805C36.7639 46.3805 39.4816 45.4825 41.2613 43.8076C42.7042 42.4484 43.4737 40.4337 43.4737 37.9822C43.4737 35.652 42.5359 33.5887 40.9005 32.3022C39.2892 30.9672 36.8843 30.312 33.5414 30.312V30.312ZM53.5746 30.312C50.881 30.312 48.3318 30.4818 46.4559 30.8459L46.1675 30.8947V54.5119L46.4559 54.5607C47.6344 54.7306 49.6305 54.9006 52.4684 54.9006C57.2302 54.9006 61.0299 53.8324 63.4589 51.7935C65.2627 50.2157 67.4032 47.2543 67.4032 42.0114C67.4032 37.9821 65.9842 34.8027 63.3387 32.8123C61.078 31.0647 58.144 30.312 53.5746 30.312V30.312ZM33.8298 35.0211C36.2588 35.0211 37.6054 36.1131 37.6054 38.1277C37.6054 40.288 36.0426 41.5747 33.4211 41.5747C32.7958 41.5747 32.3628 41.5503 32.0021 41.5017V35.1182C32.3147 35.094 32.8678 35.0211 33.8298 35.0211V35.0211ZM54.1279 35.0694C58.7455 35.0694 61.1742 37.5212 61.1742 42.1815C61.1742 44.7787 60.5012 46.7691 59.1544 48.1284C57.8557 49.4391 55.9796 50.0945 53.5746 50.0702C53.0936 50.0702 52.5166 50.07 52.0837 50.0214V35.215C52.4685 35.1422 53.1419 35.0694 54.1279 35.0694V35.0694Z" fill="white"/>
</svg>
