<svg width="112" height="80" viewBox="0 0 112 80" fill="none" xmlns="http://www.w3.org/2000/svg">
<path d="M81.3667 46.0157L81.6253 44.9359H83.7207V53.0663C83.7207 54.6541 83.2697 55.7656 82.2057 56.5911C81.4002 57.1946 80.3032 57.6388 78.982 57.6388C77.1764 57.6388 75.8869 57.0354 74.8555 56.051L76.1776 54.2406C76.8223 54.8441 77.6925 55.3842 78.8208 55.3842C80.5939 55.3842 81.3672 54.5265 81.3672 53.2563V52.6528C80.6586 53.3834 79.8205 53.6688 78.8856 53.6688C76.4352 53.6688 74.501 51.6997 74.501 49.1913C74.501 46.7137 76.4999 44.8088 78.9499 44.8088C79.9491 44.8092 80.8515 45.2851 81.3667 46.0157ZM79.2401 46.9372C77.9832 46.9372 76.983 47.8894 76.983 49.1913C76.983 50.4299 77.9832 51.4142 79.2401 51.4142C80.497 51.4142 81.4962 50.4299 81.4962 49.1913C81.4962 47.8894 80.497 46.9372 79.2401 46.9372ZM65.6032 32.8047C64.6034 32.8047 63.7649 33.3765 63.572 34.2975H67.5691C67.3762 33.4082 66.5707 32.8047 65.6032 32.8047ZM65.7322 39.6961C63.0568 39.6961 61.09 37.8862 61.09 35.2502C61.09 32.8681 62.863 30.7406 65.6679 30.7406C67.7633 30.7406 69.9235 32.2963 69.9235 35.1864C69.9235 35.4086 69.9235 35.6949 69.8592 36.012H63.5404C63.7654 36.9647 64.6365 37.6007 65.7001 37.6007C66.6672 37.6007 67.4088 37.2511 68.0214 36.6155L69.4721 38.0762C68.5376 39.1243 67.1833 39.6961 65.7322 39.6961ZM92.5216 32.8047C91.5223 32.8047 90.6847 33.3765 90.4905 34.2975H94.4879C94.2951 33.4082 93.4887 32.8047 92.5216 32.8047ZM92.6511 39.6961C89.9757 39.6961 88.0088 37.8862 88.0088 35.2502C88.0088 32.8681 89.7819 30.7406 92.5868 30.7406C94.6822 30.7406 96.8424 32.2963 96.8424 35.1864C96.8424 35.4086 96.8424 35.6949 96.7781 36.012H90.4588C90.6852 36.9647 91.5554 37.6007 92.6189 37.6007C93.5856 37.6007 94.3272 37.2511 94.9403 36.6155L96.3905 38.0762C95.4555 39.1243 94.1013 39.6961 92.6511 39.6961ZM98.6792 46.7779C97.68 46.7779 96.8419 47.3497 96.6486 48.2707H100.646C100.452 47.3814 99.6463 46.7779 98.6792 46.7779ZM98.8083 53.6688C96.1319 53.6688 94.166 51.8589 94.166 49.223C94.166 46.8408 95.9391 44.7133 98.744 44.7133C100.839 44.7133 103 46.269 103 49.1592C103 49.3813 103 49.6676 102.934 49.9848H96.6164C96.8419 50.9374 97.7126 51.5726 98.7761 51.5726C99.7432 51.5726 100.485 51.2233 101.097 50.5882L102.548 52.0489C101.613 53.0975 100.259 53.6688 98.8083 53.6688ZM59.1553 46.7779C58.1556 46.7779 57.318 47.3497 57.1242 48.2707H61.1217C60.9288 47.3814 60.1229 46.7779 59.1553 46.7779ZM59.2843 53.6688C56.6089 53.6688 54.6421 51.8589 54.6421 49.223C54.6421 46.8408 56.4147 44.7133 59.2191 44.7133C61.315 44.7133 63.4751 46.269 63.4751 49.1592C63.4751 49.3813 63.4751 49.6676 63.4109 49.9848H57.0916C57.3175 50.9374 58.1886 51.5726 59.2522 51.5726C60.2188 51.5726 60.96 51.2233 61.5735 50.5882L63.0237 52.0489C62.0892 53.0975 60.7355 53.6688 59.2843 53.6688ZM46.035 53.4467V40.8392H48.5813V51.065H54.1264V53.4467H46.035ZM55.7382 39.474V30.9627H57.8015L58.0601 32.2013C58.4463 31.4069 59.2196 30.8677 60.2519 30.8677C60.4774 30.8677 60.7029 30.8989 60.9288 30.9627V33.2173C60.6381 33.154 60.3814 33.1218 60.0907 33.1218C58.9303 33.1218 58.1243 33.8207 58.1243 35.186V39.4735H55.7382V39.474ZM97.7769 39.474V30.9627H99.8397L100.098 32.2013C100.485 31.4069 101.258 30.8677 102.29 30.8677C102.516 30.8677 102.741 30.8989 102.967 30.9627V33.2173C102.677 33.154 102.42 33.1218 102.129 33.1218C100.968 33.1218 100.163 33.8207 100.163 35.186V39.4735H97.7769V39.474ZM81.1096 34.4559C81.1096 33.5348 80.5939 32.9631 79.7875 32.9631C78.853 32.9631 78.3694 33.5348 78.3694 34.488V39.4735H75.9838V34.4559C75.9838 33.5348 75.4681 32.9631 74.6621 32.9631C73.7272 32.9631 73.2436 33.5348 73.2436 34.488V39.4735H70.858V30.9627H72.9534L73.2119 32.0742C73.2119 32.0742 73.7276 30.7406 75.3395 30.7406C76.3397 30.7406 77.1773 31.1531 77.7577 32.0113L77.8225 32.1063L77.8872 32.0113C78.7258 30.836 79.7572 30.7406 80.4019 30.7406C82.2392 30.7406 83.4966 32.1063 83.4966 34.0433V39.474H81.1109V34.4559H81.1096ZM85.913 29.82C85.0749 29.82 84.4302 29.1844 84.4302 28.3905C84.4302 27.5649 85.0749 26.9298 85.913 26.9298C86.751 26.9298 87.3958 27.5645 87.3958 28.3905C87.3958 29.184 86.751 29.82 85.913 29.82ZM84.6882 30.9627H87.0734V39.4731H84.6882V30.9627ZM69.0523 46.9372C67.7624 46.9372 66.7962 47.8894 66.7962 49.1913C66.7962 50.4299 67.7624 51.4142 69.0523 51.4142C70.3097 51.4142 71.2768 50.4299 71.2768 49.1913C71.2768 47.8894 70.3097 46.9372 69.0523 46.9372ZM68.5688 53.6688C66.28 53.6688 64.2815 51.6047 64.2815 49.1913C64.2815 46.8096 66.28 44.8088 68.5688 44.8088C69.8587 44.8088 70.7285 45.253 71.2446 46.0469L71.5027 44.9354H73.5981V53.4463H71.5027L71.2446 52.366C70.7285 53.1292 69.7618 53.6688 68.5688 53.6688ZM89.1045 53.6688C87.2025 53.6688 84.882 52.6528 84.882 49.4772V44.9354H87.2667V49.318C87.2667 50.7787 87.9445 51.4138 89.1045 51.4138C90.1681 51.4138 90.9423 50.6837 90.9423 49.318V44.9354H93.328V49.4772C93.328 52.6528 90.9745 53.6688 89.1045 53.6688ZM48.5813 32.8368H50.0646C51.3546 32.8368 52.2891 32.1384 52.2891 30.8677C52.2891 29.5965 51.3546 28.9302 50.0646 28.9302H48.5813V32.8368ZM46.035 39.474V26.5485H50.1932C52.9012 26.5485 54.9323 28.1363 54.9323 30.8677C54.9323 33.6303 52.9333 35.2502 50.1932 35.2502H48.5813V39.474H46.035ZM36.9134 37.8444C36.048 38.5431 35.3143 38.9325 35.3143 38.9325L35.3243 41.147C35.9429 41.8104 36.5532 42.36 37.0101 43.3615C37.8772 41.8616 37.7105 39.6567 36.9134 37.8444ZM36.2097 45.0937C36.2097 45.0937 36.033 44.1803 35.2809 43.3278L33.5651 43.3679C33.5651 43.3679 31.2523 45.278 29.8416 45.3229C29.8416 45.3229 30.6187 46.7121 31.0122 47.4381C31.7876 47.2746 33.1532 46.6865 33.7035 46.0712C33.7035 46.0712 34.067 47.1977 33.9987 48.5277C34.7707 48.0982 35.8345 46.9317 36.2097 45.0938M33.9987 41.0941L33.9954 38.8876C33.9954 38.8876 32.9699 38.5719 31.8761 37.7563C29.6783 38.0752 27.0171 40.2 27.0171 40.2C27.0171 40.2 27.9158 41.8392 28.8996 43.6083C30.6288 43.8407 33.1767 41.7415 33.9988 41.0941M39.8599 50.2823L38.4459 48.7777C38.0423 52.8446 35.9697 56.2977 32.1628 58.7062L31.5809 56.5125C28.3494 58.7559 22.8033 60.2108 18.0393 57.6213C18.6313 54.721 19.1566 51.7822 18.0293 48.2633C15.3914 52.1892 13.0569 53.7275 13.0569 53.7275C11.2744 50.8512 11.4345 45.0809 11.9664 43.3824L9 44.2653C9 42.3263 10.4524 38.213 12.5567 35.9023L10.7042 35.6171H10.7023C11.9613 33.1445 13.8405 31.0133 16.1399 29.4126L16.1431 29.4107C15.4528 30.4587 15.4428 33.045 17.4655 34.0289C16.6068 32.5819 16.5033 30.7936 17.4005 29.8674C18.2975 28.9333 19.8066 29.2537 20.7704 29.978C20.4836 29.1704 19.6432 28.1545 18.3843 28.0856H18.3825C20.7602 26.9094 23.4599 26.2476 26.3163 26.2476C26.8499 26.2476 27.3818 26.27 27.902 26.3149C28.7324 26.6354 29.9513 27.7602 30.5199 28.4605C30.5199 28.4605 30.5599 27.6353 30.0831 26.6386C33.1762 27.3629 34.6519 28.5727 35.2706 29.156C35.3973 30.4411 35.7975 31.2118 36.3261 32.4329C35.324 31.3545 32.8061 29.6142 31.6038 29.1976C31.6038 29.1976 31.5054 30.3113 31.0919 30.8465C28.6974 29.1864 27.5219 28.7682 27.5219 28.7682C24.8939 29.1303 23.2031 30.1046 22.2843 30.8705L23.0847 31.5259C21.5006 31.9938 20.4718 33.3014 20.4718 33.3014C20.4834 33.3254 21.8874 33.5177 21.8874 33.5177C21.8874 33.5177 21.744 35.1025 23.8083 36.096C25.5776 36.9469 28.1204 35.8909 30.5149 36.8139C28.9409 35.0673 27.852 34.2869 27.852 34.2869C27.852 34.2869 27.2267 34.1619 26.7865 34.1651C26.2362 34.1683 25.4158 34.2724 24.5171 33.936C24.0869 33.7741 23.5849 33.4889 23.1914 33.2517C23.1914 33.2517 24.297 32.1605 25.9128 31.9201C25.9128 31.9201 27.3701 32.3143 28.524 33.1347C29.291 32.4169 30.0914 32.4393 30.0914 32.4393C30.0914 32.4393 29.2977 33.1508 29.5378 34.0129C30.69 34.9999 31.9406 36.4133 31.9406 36.4133C33.2146 35.7434 35.9843 35.8973 36.5529 36.5318C35.8325 35.6329 34.7937 34.8829 33.99 34.242C33.8916 33.9055 33.0145 32.7325 32.8661 32.6236C32.8661 32.6236 33.6998 32.8704 34.4452 33.513C34.6586 33.2197 35.0588 32.9216 35.6041 32.7902C36.1643 33.2421 36.2644 33.936 36.2494 34.0513C35.9976 34.3414 35.7474 34.4599 35.7474 34.4599L37.0981 35.8652L37.2332 34.8573C40.3447 39.1277 42.0405 44.0695 39.8595 50.2821M15.2876 23.2561C17.0818 24.0461 18.234 25.0428 18.4442 25.195C18.3491 24.7495 17.9956 22.6055 17.7922 21.2739C18.8377 21.971 21.2639 23.5894 22.0626 24.115C22.3877 23.1519 23.5149 20.0064 23.5149 20.0064C23.5149 20.0064 25.5526 23.176 25.9011 23.6903C26.3263 23.2625 28.7608 20.6586 29.3911 20C29.4962 21.4982 29.6396 23.6407 29.6763 23.9627C29.798 23.8041 30.7301 22.5478 32.2925 21.3909C31.6155 22.6728 31.292 24.4419 31.1486 25.8632C29.6112 25.4514 27.9887 25.2303 26.318 25.2303C23.1081 25.2303 20.0933 26.0411 17.487 27.4656C17.0135 26.0924 16.2715 24.3842 15.2876 23.2561Z" fill="white"/>
</svg>
