<svg width="112" height="80" viewBox="0 0 112 80" fill="none" xmlns="http://www.w3.org/2000/svg">
<path fill-rule="evenodd" clip-rule="evenodd" d="M34.5981 72.981C33.9366 72.7418 33.4073 72.4229 33.0633 72.0507C32.984 71.971 32.984 71.8913 33.0369 71.8115L34.0953 70.6154C34.1482 70.5357 34.2012 70.5357 34.307 70.5888C35.1273 71.2533 35.9476 71.5457 36.7414 71.5457C37.694 71.5457 38.2761 71.1204 38.2761 70.4294C38.2761 69.818 37.9057 69.5257 36.8208 69.3662L36.318 69.2864C34.3599 68.9941 33.3544 68.0638 33.3544 66.469C33.3544 65.5918 33.6455 64.9273 34.2541 64.3692C34.8627 63.8376 35.6565 63.5718 36.662 63.5718C37.9321 63.5718 38.9906 63.9173 39.8373 64.5552C39.9167 64.6084 39.9432 64.6881 39.8638 64.7679L39.0435 66.0171C38.9906 66.0969 38.9377 66.0969 38.8318 66.0437C38.0909 65.5653 37.3765 65.326 36.662 65.326C35.8417 65.326 35.4184 65.7513 35.4184 66.3361C35.4184 66.8943 35.8417 67.2132 36.8737 67.3727L37.3765 67.4524C39.3346 67.7182 40.3136 68.6751 40.3136 70.2965C40.3136 72.0773 38.9906 73.2468 36.6356 73.2468C35.9476 73.2734 35.2331 73.1405 34.5981 72.9013V72.981Z" fill="white"/>
<path fill-rule="evenodd" clip-rule="evenodd" d="M41.4238 63.9442C41.4238 63.8379 41.4767 63.8113 41.5561 63.8113H47.5363C47.6421 63.8113 47.6686 63.8379 47.6686 63.9442V65.4061C47.6686 65.5124 47.6421 65.539 47.5363 65.539H43.5142C43.4613 65.539 43.4349 65.5655 43.4349 65.6187V67.4793C43.4349 67.5325 43.4613 67.559 43.5142 67.559H46.8748C46.9806 67.559 47.0071 67.5856 47.0071 67.6919V69.1538C47.0071 69.2601 46.9806 69.2867 46.8748 69.2867H43.5142C43.4613 69.2867 43.4349 69.3133 43.4349 69.3665V71.3334C43.4349 71.3865 43.4613 71.4131 43.5142 71.4131H47.5363C47.6421 71.4131 47.6686 71.4397 47.6686 71.546V73.0079C47.6686 73.1142 47.6421 73.1408 47.5363 73.1408H41.5561C41.4503 73.1408 41.4238 73.1142 41.4238 73.0079V63.891V63.9442Z" fill="white"/>
<path fill-rule="evenodd" clip-rule="evenodd" d="M54.154 73.1937C54.0482 73.1937 53.9952 73.1405 53.9423 73.0608L52.3282 69.6054H51.0845C51.0316 69.6054 51.0052 69.632 51.0052 69.6851V73.0342C51.0052 73.1405 50.9522 73.1671 50.8729 73.1671H49.1264C49.0206 73.1671 48.9941 73.1139 48.9941 73.0342V63.9173C48.9941 63.811 49.0471 63.7844 49.1264 63.7844H52.8574C53.81 63.7844 54.5774 64.0768 55.1595 64.6084C55.7681 65.14 56.0327 65.8311 56.0327 66.7082C56.0327 67.9043 55.4241 68.8612 54.3657 69.313L56.218 73.0076C56.2444 73.0874 56.218 73.1671 56.1121 73.1671H54.154V73.1937ZM52.7516 67.9043C53.5189 67.9043 54.0217 67.4524 54.0217 66.7348C54.0217 66.0437 53.5189 65.5919 52.7516 65.5919H51.111C51.0581 65.5919 51.0316 65.6184 51.0316 65.6716V67.8511C51.0316 67.9043 51.0581 67.9309 51.111 67.9309H52.7516V67.9043Z" fill="white"/>
<path fill-rule="evenodd" clip-rule="evenodd" d="M57.248 63.9442C57.248 63.8379 57.301 63.8113 57.3804 63.8113H59.1268C59.2326 63.8113 59.2591 63.8379 59.2591 63.9442V73.0611C59.2591 73.1674 59.2326 73.194 59.1268 73.194H57.3804C57.2745 73.194 57.248 73.1674 57.248 73.0611V63.9442Z" fill="white"/>
<path fill-rule="evenodd" clip-rule="evenodd" d="M60.875 63.9442C60.875 63.8379 60.9279 63.8113 61.0073 63.8113H66.9875C67.0933 63.8113 67.1198 63.8379 67.1198 63.9442V65.4061C67.1198 65.5124 67.0668 65.539 66.9875 65.539H62.9654C62.9125 65.539 62.886 65.5655 62.886 65.6187V67.4793C62.886 67.5325 62.9125 67.559 62.9654 67.559H66.3259C66.4318 67.559 66.4582 67.5856 66.4582 67.6919V69.1538C66.4582 69.2601 66.4318 69.2867 66.3259 69.2867H62.9654C62.9125 69.2867 62.886 69.3133 62.886 69.3665V71.3334C62.886 71.3865 62.9125 71.4131 62.9654 71.4131H66.9875C67.0933 71.4131 67.1198 71.4397 67.1198 71.546V73.0079C67.1198 73.1142 67.0668 73.1408 66.9875 73.1408H61.0073C60.9015 73.1408 60.875 73.1142 60.875 73.0079V63.891V63.9442Z" fill="white"/>
<path fill-rule="evenodd" clip-rule="evenodd" d="M73.8923 63.9442C73.9187 63.8379 73.9717 63.8113 74.0775 63.8113H75.7975C75.9033 63.8113 75.9562 63.8379 75.9827 63.9442L79.158 73.0611C79.1845 73.1674 79.158 73.194 79.0522 73.194H77.2793C77.1734 73.194 77.1205 73.1674 77.0941 73.0611L76.5648 71.4131H73.2837L72.7545 73.0611C72.728 73.1674 72.6751 73.194 72.5692 73.194H70.7699C70.6641 73.194 70.6641 73.1674 70.6641 73.0611L73.8658 63.9442H73.8923ZM73.8394 69.6854H76.0092L74.9507 66.3895H74.9243L73.8658 69.6854H73.8394Z" fill="white"/>
<path fill-rule="evenodd" clip-rule="evenodd" d="M56.2709 60.4483L47.3536 46.042H33.541L56.2709 60.4483Z" fill="white"/>
<path fill-rule="evenodd" clip-rule="evenodd" d="M78.9994 46.042H65.1868L56.2695 60.4483L78.9994 46.042Z" fill="white"/>
<path fill-rule="evenodd" clip-rule="evenodd" d="M62.5421 6H49.9732L33.541 44.4344H47.3536L56.2709 21.0708L60.1342 31.1977H55.2654L52.0107 39.7298H63.3889L65.1882 44.4344H79.0008L62.5421 6Z" fill="white"/>
</svg>
