<svg width="112" height="80" viewBox="0 0 112 80" fill="none" xmlns="http://www.w3.org/2000/svg">
<path d="M42.7941 47.3245C42.5714 48.131 42.3866 48.6095 42.3866 48.6095C41.6272 50.7937 40.6147 53.5114 38.119 55.9911C36.542 53.6216 38.6556 48.8649 36.6154 45.4133C35.1853 42.9886 32.9781 41.5759 29.1559 42.3825C27.4474 42.5678 27.2626 42.1996 26.9665 41.9416C26.0932 41.0249 25.4249 40.6216 24.9972 40.4387C25.1845 40.3836 25.3693 40.311 25.5363 40.2559C26.1305 40.0343 26.7571 39.9099 27.3917 39.8877C27.5806 39.8878 27.7621 39.9606 27.8979 40.0906C27.9427 40.1499 27.9927 40.2053 28.0473 40.2559C28.1489 40.3885 28.2752 40.5008 28.4194 40.5865C28.8489 40.9221 29.3897 41.0864 29.9356 41.0474C31.029 40.9923 31.6796 40.7969 33.0338 41.1576C34.092 41.4472 35.0204 42.0818 35.6687 42.9586C35.6865 42.8834 34.6841 40.8095 35.0182 38.7154C35.3523 37.2651 35.7067 35.8324 36.1142 34.4197C36.4306 33.3526 36.5218 32.2705 36.6888 31.206C36.7983 30.8498 36.9285 30.5003 37.0786 30.159C37.1617 29.9305 37.2302 29.6971 37.2837 29.4601C37.8666 29.7807 38.425 30.1432 38.9543 30.5447C39.7524 31.1513 40.4583 31.8683 41.0501 32.6738C41.887 33.7975 42.5152 35.0596 42.9055 36.401V36.421L42.9612 36.5863C43.2371 37.5698 43.4234 38.5757 43.518 39.5921L43.5737 40.1983V40.2358C43.7965 43.1189 43.2042 45.8066 42.7941 47.3245ZM8.74176 36.1405C9.02758 36.6212 9.41078 37.0383 9.86729 37.3654C10.3238 37.6926 10.8437 37.9228 11.3945 38.0416C10.267 38.3893 9.21592 38.9442 8.29626 39.6773C8.59155 38.521 8.74118 37.3331 8.74176 36.1405ZM10.1896 28.8114C12.2298 25.9283 15.3862 25.1944 17.5301 26.6998C19.674 28.2052 20.0613 31.3838 18.0136 34.2669C15.9658 37.1499 12.5563 38.2746 10.387 36.7717C9.84895 36.3988 9.42718 35.8843 9.16953 35.2863C8.31398 33.5129 8.6481 30.9805 10.1896 28.8114ZM46.9706 40.2358C46.7175 36.6915 46.1353 34.5048 44.5938 31.5667C43.095 28.7349 40.9553 26.2841 38.3417 24.4054C38.3068 24.3862 38.2752 24.3617 38.248 24.3328C38.3594 23.689 38.5822 22.6245 39.0656 21.9081C39.7896 20.8435 40.9767 19.5761 41.0678 18.9875C41.1589 18.3988 40.7894 17.9229 40.7134 17.5748C40.5844 16.9861 40.1743 16.9135 39.9338 17.0738C39.6221 17.3469 39.3365 17.6479 39.0808 17.973C38.7847 18.3212 38.5239 18.6168 38.3746 18.762C38.3949 18.6099 38.3949 18.4558 38.3746 18.3037C38.3012 17.715 37.8937 17.7351 37.7621 17.9179C37.6886 18.0106 37.8 18.5617 37.4482 19.1303C37.1318 19.6062 37.1495 20.1021 37.1951 20.6331C37.2462 21.3607 37.124 22.09 36.8382 22.7622C36.7648 22.9276 36.6888 23.1104 36.6154 23.2757C36.6154 23.2757 34.9271 26.9854 34.6664 28.6385C34.5727 29.4476 34.7044 29.8684 34.5727 30.2541C34.3196 31.0457 32.6819 34.2619 31.8087 35.8374C31.1784 37.0121 30.5835 38.2245 30.7329 39.5946C30.7472 39.7168 30.7531 39.8398 30.7506 39.9628C30.7371 40.1673 30.6452 40.3589 30.4937 40.4985C30.3422 40.6382 30.1426 40.7153 29.9356 40.7143C29.08 40.6967 28.7459 39.6497 28.9686 38.768C29.1003 38.217 29.4749 37.741 29.1559 37.3177C28.837 36.8944 28.2093 37.0798 27.4297 37.3002C26.5766 37.5507 25.797 37.721 25.0529 37.0798C24.3087 36.4385 23.7189 35.7873 21.4155 36.4335C21.046 36.5437 21.3041 35.0008 22.3445 34.6526C22.1618 34.6127 21.9741 34.6001 21.7876 34.615C20.9667 34.6877 20.192 35.0226 19.5804 35.5694C18.9234 36.1527 18.507 36.9554 18.411 37.8237C18.2363 38.9922 18.507 40.1832 19.1703 41.1651C18.3907 41.5509 18.0769 42.0293 17.6516 42.6355C17.3985 42.9836 16.9834 43.5547 16.224 43.5547C16.4771 44.0557 17.2365 43.8052 17.6162 43.9204C17.1823 44.2576 16.8639 44.7188 16.7045 45.2415C16.545 45.7641 16.5523 46.3226 16.7252 46.841C17.3158 46.0396 18.1094 45.4063 19.0261 45.005C19.3045 44.9123 20.0385 44.5992 20.3246 44.5041C21.337 44.1358 21.6788 43.6775 21.9015 42.5578C22.5888 42.6738 23.2904 42.6797 23.9796 42.5753C24.5188 42.5027 24.7592 42.9436 25.4098 43.2542C25.1313 43.4019 23.6835 43.9705 22.8786 44.4289C21.4687 45.2004 19.874 46.5605 19.3349 48.1385C19.1982 48.5619 17.9326 49.7667 17.6314 50.0648C16.7954 50.9712 16.0088 51.9211 15.2748 52.9102L15.2368 52.8927C14.4572 52.0686 9.7264 49.0127 7.80774 47.059C7.79002 47.0414 7.40021 46.6557 7.34453 46.5805C7.2185 46.3575 7.17297 46.0987 7.21544 45.8466V45.506C7.21544 45.005 7.01041 44.3287 6.69401 44.1283C6.50923 44.0006 6.38014 43.9254 6.3042 43.8779L8.42029 40.9222C9.1999 39.82 11.1489 38.8832 12.6145 38.4173C12.8929 38.3247 14.9888 37.8462 16.2696 36.9671C18.7755 35.2387 20.9472 32.0451 23.1367 30.4094C24.6572 29.2762 26.4128 28.4908 28.277 28.1101C30.1412 27.7294 32.0675 27.7627 33.9172 28.2077C34.0665 27.1782 34.9018 25.4148 35.0511 25.1042C35.3473 24.478 35.8864 23.4686 36.1446 22.9902C33.721 21.6503 31.0416 20.8253 28.2776 20.568C20.317 19.8316 13.0904 23.3759 9.44037 28.7387C8.2912 30.4094 7.95708 32.3206 7.9748 34.2844C8.06845 35.3865 8.05074 38.7931 7.19519 40.0881C6.88132 40.5665 5.76759 42.1445 5.04366 43.174C4.9479 43.1387 4.84863 43.1135 4.74751 43.0989C4.19064 43.0262 3.89196 43.1915 3.55784 43.7601L3.11994 44.6794C3.08197 44.752 3.04401 44.8447 3.00857 44.9299C2.97363 45.197 3.04638 45.4669 3.21107 45.6813C3.45517 46.1053 3.8219 46.4472 4.26405 46.6632C4.32536 46.6987 4.39315 46.7218 4.46352 46.7312C4.53389 46.7407 4.60545 46.7363 4.6741 46.7183C4.98797 47.1942 5.24869 47.2493 5.52712 47.4873C5.96521 47.8806 6.35286 48.3256 6.68135 48.8123C7.85077 50.3002 9.18725 52.3016 11.4324 54.5434C12.2854 55.3875 13.827 56.5472 14.2168 56.948L14.3281 57.0582C14.5201 57.2303 14.773 57.3203 15.0318 57.3087C15.3197 57.2953 15.5976 57.1996 15.8317 57.0332C19.8816 54.5283 22.2888 50.5858 22.3267 50.5206C22.1394 50.4856 21.6585 50.1925 21.5674 50.1725L21.6231 50.1549C21.8432 50.1116 22.0692 50.1057 22.2913 50.1374H22.3293C23.7948 50.21 25.8173 50.9064 26.3792 51.1393C26.6986 51.2959 26.9781 51.522 27.1968 51.8006C27.622 52.4268 28.0118 53.068 28.3839 53.7293C28.4931 53.9304 28.5593 54.1516 28.5785 54.3791C28.5976 54.6066 28.5693 54.8356 28.4953 55.0518C28.3282 55.5528 26.3615 59.4954 25.7667 61.1861C25.6741 61.4623 25.5625 61.7318 25.4325 61.9927H25.4503C27.236 62.0383 29.0208 61.8701 30.7658 61.4917C32.9495 61.0128 35.0336 60.1655 36.9268 58.9869C40.9159 56.5272 42.8473 53.9372 44.4976 51.1093C46.3909 47.8755 46.8364 44.1308 46.8921 43.5422C47.0015 42.4436 47.0278 41.3384 46.9706 40.2358Z" fill="white"/>
<path d="M101.673 44.1105C101.418 44.0999 101.164 44.1411 100.926 44.2316C100.688 44.3221 100.47 44.4601 100.287 44.6371C100.103 44.8141 99.9575 45.0266 99.8586 45.2616C99.7596 45.4965 99.7094 45.7491 99.711 46.0041C99.7083 46.5215 99.9064 47.0197 100.264 47.394C100.538 47.6615 100.884 47.8429 101.26 47.916C101.636 47.9891 102.025 47.9506 102.379 47.8053C102.733 47.6599 103.037 47.4141 103.254 47.0982C103.47 46.7822 103.589 46.4098 103.596 46.027C103.59 45.52 103.386 45.0355 103.027 44.6773C102.668 44.3191 102.183 44.1156 101.676 44.1105H101.673Z" fill="white"/>
<path d="M77.891 32.0723C77.5624 32.1624 77.2591 32.3275 77.0049 32.5544C76.7507 32.7814 76.5525 33.0641 76.4259 33.3804C75.2289 35.8757 74.0287 38.3677 72.8055 40.863C72.7107 41.0298 72.6159 41.1901 72.4785 41.4386C72.3346 41.1508 72.2136 40.9088 72.0926 40.693L68.5835 33.4654C68.4886 33.2725 68.3905 33.0795 68.2957 32.9127C68.1141 32.6402 67.8681 32.4168 67.5794 32.2622C67.2907 32.1076 66.9683 32.0268 66.6409 32.0268C66.3134 32.0268 65.991 32.1076 65.7023 32.2622C65.4136 32.4168 65.1676 32.6402 64.9861 32.9127C64.8671 33.0841 64.7704 33.2698 64.6983 33.4654C63.5242 35.8626 62.373 38.2827 61.1989 40.6799C61.1041 40.8958 60.9602 41.1116 60.7902 41.4256C60.6234 41.0985 60.5024 40.8958 60.4075 40.7061L56.9344 33.5374C56.8395 33.3215 56.7185 33.1286 56.6073 32.9127C56.3328 32.495 55.9093 32.1977 55.423 32.0816C54.9368 31.9655 54.4246 32.0394 53.991 32.2881C53.5574 32.5351 53.2341 32.9381 53.0871 33.415C52.9401 33.892 52.9803 34.407 53.1996 34.8554C55.1204 38.8583 57.0554 42.8547 59.0045 46.8446C59.1577 47.1879 59.4112 47.4769 59.7316 47.6736C60.052 47.8703 60.4245 47.9655 60.8 47.9467C61.1765 47.9512 61.5459 47.8444 61.8619 47.6396C62.1779 47.4347 62.4262 47.1411 62.5758 46.7955C62.6248 46.7007 66.461 38.8125 66.6278 38.4986C67.0366 39.339 69.6496 44.7319 70.6078 46.6745C71.0395 47.5641 71.7329 47.9827 72.5962 47.9238C73.4596 47.8649 73.9894 47.3482 74.3492 46.6157L79.8859 35.1072C80.0069 34.8622 80.1033 34.6059 80.1737 34.3419C80.2318 34.0235 80.2121 33.6959 80.1165 33.3867C80.0208 33.0776 79.852 32.796 79.6243 32.5661C79.4017 32.3424 79.1255 32.1795 78.8221 32.0931C78.5186 32.0066 78.198 31.9994 77.891 32.0723Z" fill="white"/>
<path d="M96.7084 34.1129C96.7343 33.7017 96.6301 33.2928 96.4105 32.9441C96.191 32.5954 95.8673 32.3247 95.4852 32.1703C95.1795 32.0535 94.8543 31.9958 94.527 32.0002H84.0618C83.6082 32.0638 83.1903 32.2815 82.8782 32.6167C82.5661 32.952 82.379 33.3845 82.3481 33.8415C82.3151 34.2207 82.3958 34.6011 82.5799 34.9342C82.7639 35.2674 83.043 35.5382 83.3815 35.7121C83.6442 35.8334 83.9295 35.8981 84.2188 35.9018H86.9299C86.9299 35.9018 82.3972 45.0916 82.3187 45.3794C82.1771 45.7526 82.1588 46.1613 82.2665 46.5456C82.3742 46.93 82.6023 47.2697 82.9172 47.5149C83.2135 47.7628 83.5764 47.9177 83.9603 47.9601C84.3443 48.0026 84.7323 47.9308 85.0756 47.7537C85.5216 47.5019 85.8679 47.1048 86.0567 46.6287C87.0182 44.6141 87.9764 42.5996 88.9576 40.6079C89.6541 39.1951 91.188 35.9084 91.188 35.9084C91.188 35.9084 94.5695 35.9574 95.1124 35.9084C95.5464 35.8428 95.9436 35.6273 96.2352 35.2993C96.5267 34.9713 96.6942 34.5515 96.7084 34.1129Z" fill="white"/>
<path d="M109.137 44.9606C107.245 41.0776 105.367 37.1858 103.505 33.2854C103.12 32.5168 102.544 32.0132 101.658 32.0132C100.771 32.0132 100.173 32.5168 99.7641 33.3213C97.9164 37.1837 96.049 41.0198 94.1783 44.8789C94.0787 45.0921 93.9902 45.3104 93.9134 45.533C93.8106 45.962 93.8554 46.4133 94.0405 46.8138C94.2257 47.2143 94.5405 47.5407 94.934 47.7403C95.3275 47.9398 95.7768 48.001 96.2094 47.9138C96.6419 47.8266 97.0324 47.5962 97.3179 47.2597C97.489 47.0373 97.6338 46.7959 97.7496 46.5402L101.275 39.2767C101.37 39.0838 101.491 38.8679 101.635 38.5572C101.711 38.7307 101.798 38.899 101.896 39.0609C102.858 41.0721 103.839 43.0638 104.823 45.0784C105.15 45.7324 105.445 46.3865 105.782 47.021C105.972 47.34 106.249 47.5991 106.579 47.7685C106.91 47.9379 107.282 48.0109 107.652 47.9792C108.025 47.9437 108.379 47.8014 108.673 47.5693C108.966 47.3372 109.187 47.0253 109.307 46.671C109.402 46.3903 109.436 46.0924 109.407 45.7975C109.377 45.5025 109.285 45.2172 109.137 44.9606Z" fill="white"/>
</svg>
