<svg width="48" height="30" viewBox="0 0 48 30" fill="none" xmlns="http://www.w3.org/2000/svg">
<mask id="mask0_324_2833" style="mask-type:alpha" maskUnits="userSpaceOnUse" x="0" y="0" width="48" height="30">
<path d="M0 0L17.4905 30L22.1931 21.934L9.40523 4.21045e-07L0 0Z" fill="white"/>
<path d="M29.6904 30L12.1999 0L21.6052 4.21045e-07L34.3931 21.934L34.3799 21.9565L34.3926 21.9782L30.8803 28.0024L30.8677 27.9807L29.6904 30Z" fill="white"/>
<path d="M32.1904 13.7089L36.6713 6.02324L27.7095 6.02324L24.1978 5.38557e-07L47.2062 1.82352e-06L35.702 19.7322L32.1904 13.7089Z" fill="white"/>
</mask>
<g mask="url(#mask0_324_2833)">
<rect width="19.7878" height="42.6783" transform="matrix(-0.987914 0.155001 -0.157944 -0.987448 36.9121 31.623)" fill="url(#paint0_linear_324_2833)"/>
<rect width="19.6987" height="42.8732" transform="matrix(0.713989 -0.700157 0.707008 0.707206 -10.6211 6.38965)" fill="url(#paint1_linear_324_2833)"/>
<rect width="24.3231" height="39.997" transform="matrix(0.964004 -0.265888 0.270689 0.962667 20.8496 -10.286)" fill="url(#paint2_linear_324_2833)"/>
<g filter="url(#filter0_b_324_2833)">
<rect x="-33.1934" y="-26.1367" width="101.961" height="70.6879" fill="white" fill-opacity="0.1"/>
</g>
</g>
<defs>
<filter id="filter0_b_324_2833" x="-45.1888" y="-38.1321" width="125.952" height="94.6787" filterUnits="userSpaceOnUse" color-interpolation-filters="sRGB">
<feFlood flood-opacity="0" result="BackgroundImageFix"/>
<feGaussianBlur in="BackgroundImage" stdDeviation="5.99771"/>
<feComposite in2="SourceAlpha" operator="in" result="effect1_backgroundBlur_324_2833"/>
<feBlend mode="normal" in="SourceGraphic" in2="effect1_backgroundBlur_324_2833" result="shape"/>
</filter>
<linearGradient id="paint0_linear_324_2833" x1="9.89391" y1="0" x2="9.89391" y2="42.6783" gradientUnits="userSpaceOnUse">
<stop stop-color="#00FFEB"/>
<stop offset="1" stop-color="#0094FF"/>
</linearGradient>
<linearGradient id="paint1_linear_324_2833" x1="9.84933" y1="0" x2="9.84933" y2="42.8732" gradientUnits="userSpaceOnUse">
<stop stop-color="#00FFEB"/>
<stop offset="1" stop-color="#3B70E3"/>
</linearGradient>
<linearGradient id="paint2_linear_324_2833" x1="0.887646" y1="9.91828" x2="17.6835" y2="26.0647" gradientUnits="userSpaceOnUse">
<stop stop-color="#6C3EE8"/>
<stop offset="1" stop-color="#FB48FF"/>
</linearGradient>
</defs>
</svg>
