<svg width="560" height="16" viewBox="0 0 560 16" fill="none" xmlns="http://www.w3.org/2000/svg">
<g filter="url(#filter0_b_2964_639)">
<path fill-rule="evenodd" clip-rule="evenodd" d="M13.0019 0.454545C13.0019 6.78072 7.62936 11.9091 1.00194 11.9091C0.664527 11.9091 0.330366 11.8958 0 11.8697V16H560V11.9091C553.373 11.9081 548.002 6.78009 548.002 0.454545C548.002 0.302318 548.005 0.150785 548.011 0H528.993C528.999 0.150785 529.002 0.302318 529.002 0.454545C529.002 6.78072 523.629 11.9091 517.002 11.9091C510.375 11.9091 505.002 6.78072 505.002 0.454545C505.002 0.302318 505.005 0.150785 505.011 0H485.993C485.999 0.150785 486.002 0.302318 486.002 0.454545C486.002 6.78072 480.629 11.9091 474.002 11.9091C467.375 11.9091 462.002 6.78072 462.002 0.454545C462.002 0.302318 462.005 0.150785 462.011 0H442.993C442.999 0.150785 443.002 0.302318 443.002 0.454545C443.002 6.78072 437.629 11.9091 431.002 11.9091C424.375 11.9091 419.002 6.78072 419.002 0.454545C419.002 0.302318 419.005 0.150785 419.011 0H399.993C399.999 0.150785 400.002 0.302318 400.002 0.454545C400.002 6.78072 394.629 11.9091 388.002 11.9091C381.375 11.9091 376.002 6.78072 376.002 0.454545C376.002 0.302318 376.005 0.150785 376.011 0H356.993C356.999 0.150785 357.002 0.302318 357.002 0.454545C357.002 6.78072 351.629 11.9091 345.002 11.9091C338.375 11.9091 333.002 6.78072 333.002 0.454545C333.002 0.302318 333.005 0.150785 333.011 0H313.993C313.999 0.150785 314.002 0.302318 314.002 0.454545C314.002 6.78072 308.629 11.9091 302.002 11.9091C295.375 11.9091 290.002 6.78072 290.002 0.454545C290.002 0.302318 290.005 0.150785 290.011 0H270.993C270.999 0.150785 271.002 0.302318 271.002 0.454545C271.002 6.78072 265.629 11.9091 259.002 11.9091C252.375 11.9091 247.002 6.78072 247.002 0.454545C247.002 0.302318 247.005 0.150785 247.011 0H227.993C227.999 0.150785 228.002 0.302318 228.002 0.454545C228.002 6.78072 222.629 11.9091 216.002 11.9091C209.375 11.9091 204.002 6.78072 204.002 0.454545C204.002 0.302318 204.005 0.150785 204.011 0H184.993C184.999 0.150785 185.002 0.302318 185.002 0.454545C185.002 6.78072 179.629 11.9091 173.002 11.9091C166.375 11.9091 161.002 6.78072 161.002 0.454545C161.002 0.302318 161.005 0.150785 161.011 0H141.993C141.999 0.150785 142.002 0.302318 142.002 0.454545C142.002 6.78072 136.629 11.9091 130.002 11.9091C123.375 11.9091 118.002 6.78072 118.002 0.454545C118.002 0.302318 118.005 0.150785 118.011 0H98.9927C98.9988 0.150785 99.0019 0.302318 99.0019 0.454545C99.0019 6.78072 93.6294 11.9091 87.0019 11.9091C80.3745 11.9091 75.0019 6.78072 75.0019 0.454545C75.0019 0.302318 75.0051 0.150785 75.0112 0H55.9927C55.9988 0.150785 56.0019 0.302318 56.0019 0.454545C56.0019 6.78072 50.6294 11.9091 44.0019 11.9091C37.3745 11.9091 32.0019 6.78072 32.0019 0.454545C32.0019 0.302318 32.0051 0.150785 32.0112 0H12.9927C12.9988 0.150785 13.0019 0.302318 13.0019 0.454545Z" fill="#000012" fill-opacity="0.7"/>
</g>
<defs>
<filter id="filter0_b_2964_639" x="-10" y="-10" width="580" height="36" filterUnits="userSpaceOnUse" color-interpolation-filters="sRGB">
<feFlood flood-opacity="0" result="BackgroundImageFix"/>
<feGaussianBlur in="BackgroundImageFix" stdDeviation="5"/>
<feComposite in2="SourceAlpha" operator="in" result="effect1_backgroundBlur_2964_639"/>
<feBlend mode="normal" in="SourceGraphic" in2="effect1_backgroundBlur_2964_639" result="shape"/>
</filter>
</defs>
</svg>
